<?xml version="1.0" encoding="utf-8"?>
<!-- Generator: Adobe Illustrator 23.0.4, SVG Export Plug-In . SVG Version: 6.00 Build 0)  -->
<svg version="1.1" id="Layer_1" xmlns="http://www.w3.org/2000/svg" xmlns:xlink="http://www.w3.org/1999/xlink" x="0px" y="0px"
	 viewBox="0 0 553.8 188.7" style="enable-background:new 0 0 553.8 188.7;" xml:space="preserve">
<style type="text/css">
	.st0{fill-rule:evenodd;clip-rule:evenodd;fill:#927C4E;}
	.st1{fill:#927C4E;}
</style>
<g>
	<g>
		<polygon class="st0" points="119.3,116.3 119.3,95.5 148.7,95.5 148.7,116.3 155.9,116.3 155.9,71.4 148.7,71.4 148.7,89.1 
			119.3,89.1 119.3,71.4 112,71.4 112,116.3 		"/>
		<path class="st0" d="M187.7,112.6c0.7,3.5,3.2,4.1,5.8,4.1c1.6,0,3.5-0.1,4.9-0.4l0.3,0l0-5l-0.4,0.1c-0.6,0.1-1.4,0.2-2.1,0.2
			c-1.7,0-2.4-0.7-2.4-2.4l0-17.5c0-8.3-9.6-9.6-15.3-9.6c-10.4,0-15.7,3.7-16.4,11.6l0,0.4h6.5l0-0.3c0.2-4.1,3.3-6.1,9.7-6.1
			c6.3,0,9,1.5,9,5c0,2.5-1.7,3.2-5.3,3.6l-7.1,0.7c-10.2,1.1-14.2,4-14.2,10.4c0,3,1.3,10.1,13.5,10.1
			C178.6,117.4,184.7,115.9,187.7,112.6z M183.5,109.4c-2.3,1.6-5.5,2.5-8.9,2.5c-4.3,0-7.2-1.9-7.2-4.8c0-2.9,2-4.3,7.1-5l7-0.9
			c2.8-0.3,4.6-0.7,5.7-1.5l0,3.4C187.2,105.6,185.9,107.8,183.5,109.4z"/>
		<path class="st0" d="M238.9,111.3c-0.6,0.1-1.4,0.2-2.1,0.2c-1.7,0-2.4-0.7-2.4-2.4l0-17.5c0-8.3-9.6-9.6-15.3-9.6
			c-10.4,0-15.7,3.7-16.4,11.6l0,0.4h6.5l0-0.3c0.2-4.1,3.3-6.1,9.7-6.1c6.3,0,9,1.5,9,5c0,2.5-1.7,3.2-5.3,3.6l-7.1,0.7
			c-10.2,1.1-14.2,4-14.2,10.4c0,3,1.3,10.1,13.5,10.1c4.6,0,10.6-1.5,13.6-4.8c0.7,3.5,3.2,4.1,5.8,4.1c1.6,0,3.5-0.1,4.9-0.4
			l0.3,0l0-5L238.9,111.3z M227.8,103.1c0,2.4-1.3,4.7-3.7,6.3c-2.3,1.6-5.5,2.5-8.9,2.5c-4.3,0-7.2-1.9-7.2-4.8c0-2.9,2-4.3,7.1-5
			l7-0.9c2.8-0.3,4.6-0.7,5.7-1.5L227.8,103.1z"/>
		<path class="st0" d="M240.9,105.4l0,0.4c0.6,7.7,6.3,11.7,16.9,11.7c5.1,0,9.2-0.9,12-2.8c3-2,4.6-4.9,4.6-8.7c0-5-3.7-7.9-11.6-9
			l-8.8-1.2c-4.3-0.6-5.1-1.8-5.1-3.7c0-1.6,0.9-2.8,2.6-3.6c1.4-0.6,3.4-1,5.6-1c6.7,0,9.2,3,9.4,5.7l0,0.3h6.9l0-0.4
			c-0.6-7.2-6.4-11.2-16.2-11.2c-4.6,0-8.4,1-11,2.8c-2.7,1.9-4.1,4.7-4.1,8c0,5.3,4.6,8.3,9.1,9l10.2,1.4c4.9,0.7,5.8,2,5.8,4
			c0,0.9-0.3,2.1-1.8,3.1c-1.6,1.1-4.2,1.6-7.8,1.6c-7.3,0-9.9-3.2-9.9-6.2v-0.3H240.9z"/>
	</g>
	<g>
		<polygon class="st0" points="328.7,71.4 293.7,71.4 293.7,116.3 301.3,116.3 301.3,96.7 327.4,96.7 327.4,90 301.3,90 301.3,78.2 
			328.7,78.2 		"/>
		<path class="st0" d="M346.6,71.4l0,0.5c-0.4,5-4.5,7.5-12.2,7.5h-2l0,5.9h12.8l0,31h7.6l0-44.9H346.6z"/>
		<polygon class="st0" points="418.5,78.2 418.5,71.4 377.7,71.4 377.7,78.2 394.3,78.2 394.3,116.3 401.9,116.3 401.9,78.2 		"/>
		<path class="st0" d="M431.7,82c-6,0-11,1.8-14.4,5.3c-3.1,3.1-4.8,7.6-4.8,12.5c0,10.8,7.5,17.7,19.2,17.7
			c6.1,0,13.8-2.9,17.1-11.2l0.3-0.8h-7.7l-0.1,0.3c-2.2,4.9-7.6,5.4-9.9,5.4c-5,0-10.5-3.2-11.2-9.1h29.5v-1.3
			C449.7,86.9,440.4,82,431.7,82z M431.4,88.2c5.5,0,9.5,3,10.6,8h-21.6C421.5,91.4,425.9,88.2,431.4,88.2z"/>
		<path class="st0" d="M490.9,110.9c-0.6,0.1-1.4,0.2-2,0.2c-1.6,0-2.2-0.6-2.2-2.2V91.7c0-8.4-9.6-9.7-15.4-9.7
			c-10.5,0-15.7,3.7-16.5,11.7l-0.1,0.6h6.9l0-0.5c0.1-3.9,3.2-5.8,9.4-5.8c6.1,0,8.7,1.4,8.7,4.7c0,2.4-1.6,2.9-5.1,3.3l-7,0.7
			c-10.2,1.1-14.3,4.1-14.3,10.6c0,3.1,1.3,10.2,13.6,10.2c4.5,0,10.3-1.4,13.3-4.5c0.9,3.3,3.4,3.8,5.9,3.8c1.6,0,3.5-0.1,4.9-0.4
			l0.5-0.1v-5.4L490.9,110.9z M479.7,103.1c0,2.3-1.3,4.5-3.5,6.1c-2.3,1.6-5.4,2.4-8.7,2.4c-4.1,0-6.9-1.8-6.9-4.5
			c0-2.8,1.8-4.1,6.8-4.7l6.9-0.9c2.5-0.3,4.2-0.6,5.4-1.3L479.7,103.1z"/>
		<path class="st0" d="M551.9,93.9c0-9.4-8-11.9-12.8-11.9c-5.5,0-9.7,1.8-12.9,5.6c-2.5-3.6-6.3-5.6-11-5.6c-3.1,0-8.6,0.7-12.1,5
			l0-3.9h-7.2v33.3h7.3l0-19.1c0-2.8,1-5.1,3-6.7c1.8-1.5,4.3-2.3,7-2.3c3.3,0,7.2,1.2,7.2,7.1l0,21h7.2v-20c0-2.6,1-4.7,2.9-6.1
			c1.7-1.3,4.2-2,7-2c3.3,0,7.2,1.2,7.2,7.1l0,21h7.2V93.9z"/>
	</g>
	<path class="st0" d="M52.8,53.4c-22.4,0-40.6,18.2-40.6,40.6c0,0.8,0,1.6,0.1,2.4H7c-0.3,0-0.4,0.2-0.6,0.4
		c-0.1,0.2-4.8,8.5-4.9,8.7c-0.1,0.2-0.1,0.3,0.2,0.3h12.3c5,16.7,20.5,28.8,38.9,28.8c22.4,0,40.6-18.2,40.6-40.6
		C93.4,71.5,75.2,53.4,52.8,53.4z M23.8,105.7h10.8l-5.2,9C27.1,112.1,25.2,109.1,23.8,105.7z M52.8,125.3c-8.5,0-16.2-3.4-21.9-8.9
		h8.8c0,0,25.3-44.5,25.3-44.7c0.1-0.2,0.1-0.3-0.1-0.3H54.6c-0.2,0-0.2,0.1-0.3,0.2c-0.1,0.1-14.2,24.8-14.2,24.8H21.6
		c-0.1-0.8-0.1-1.5-0.1-2.4c0-17.3,14-31.3,31.3-31.3c8.8,0,16.8,3.7,22.5,9.6c-2.5,4.2-13.6,23-15,25.7c-0.9-2-4.9-1.6-6.9-1.6
		c-0.9,1.5-5.1,9.4-5.1,9.4s2.3,0,4.4,0c2,0,2.3,2.1,1.5,3.5c-0.8,1.3-4.1,7.1-4.1,7.1h10.6c0,0,13-22.8,20.5-35.7
		c1.9,4.1,3,8.6,3,13.3C84.1,111.2,70.1,125.3,52.8,125.3z"/>
</g>
<g>
	<path class="st1" d="M355.9,72.6c0.2-0.5,0.5-0.9,0.9-1.2c0.4-0.4,0.8-0.6,1.3-0.8c0.5-0.2,1-0.3,1.5-0.3c0.5,0,1.1,0.1,1.5,0.3
		c0.5,0.2,0.9,0.5,1.3,0.8c0.4,0.4,0.6,0.8,0.9,1.2c0.2,0.5,0.3,1,0.3,1.6c0,0.6-0.1,1.1-0.3,1.6c-0.2,0.5-0.5,0.9-0.9,1.3
		c-0.4,0.4-0.8,0.6-1.3,0.8c-0.5,0.2-1,0.3-1.5,0.3c-0.5,0-1.1-0.1-1.5-0.3c-0.5-0.2-0.9-0.5-1.3-0.8c-0.4-0.4-0.7-0.8-0.9-1.3
		c-0.2-0.5-0.3-1-0.3-1.6C355.5,73.6,355.6,73.1,355.9,72.6z M356.5,75.5c0.2,0.4,0.4,0.8,0.7,1.1c0.3,0.3,0.6,0.5,1,0.7
		c0.4,0.2,0.8,0.3,1.3,0.3c0.5,0,0.9-0.1,1.3-0.3c0.4-0.2,0.7-0.4,1-0.7c0.3-0.3,0.5-0.7,0.7-1.1c0.2-0.4,0.2-0.9,0.2-1.3
		c0-0.5-0.1-0.9-0.2-1.3c-0.2-0.4-0.4-0.8-0.7-1.1c-0.3-0.3-0.6-0.5-1-0.7c-0.4-0.2-0.8-0.3-1.3-0.3c-0.5,0-0.9,0.1-1.3,0.3
		c-0.4,0.2-0.7,0.4-1,0.7c-0.3,0.3-0.5,0.7-0.7,1.1c-0.2,0.4-0.2,0.8-0.2,1.3C356.3,74.7,356.3,75.1,356.5,75.5z M359.8,71.9
		c0.6,0,1,0.1,1.2,0.3c0.3,0.2,0.4,0.5,0.4,1c0,0.4-0.1,0.7-0.3,0.9c-0.2,0.2-0.5,0.3-0.9,0.3l1.3,2h-0.8l-1.3-2h-0.8v2H358v-4.6
		H359.8z M359.5,74c0.2,0,0.3,0,0.5,0c0.1,0,0.3,0,0.4-0.1c0.1,0,0.2-0.1,0.3-0.2c0.1-0.1,0.1-0.2,0.1-0.4c0-0.2,0-0.3-0.1-0.4
		c-0.1-0.1-0.1-0.2-0.2-0.2c-0.1,0-0.2-0.1-0.3-0.1c-0.1,0-0.2,0-0.4,0h-1V74H359.5z"/>
</g>
</svg>
