<svg id="Layer_1" enable-background="new 0 0 512 512" height="512" viewBox="0 0 512 512" width="512" xmlns="http://www.w3.org/2000/svg"><path d="m421.21 148c.021.06.04.13.05.19 37.31 2.69 66.74 33.82 66.74 71.81 0 39.76-32.24 72-72 72h-368c-13.25 0-24-10.75-24-24s10.75-24 24-24h40.57c-4.9-33.663 21.28-64 55.43-64 0-47.91 45.994-82.413 91.92-69.21 38.226-52.463 114.383-57.419 159.12-10.79h68.96c13.25 0 24 10.75 24 24s-10.75 24-24 24c-46.055 0-42.817-.103-42.74.19" fill="#5989b3"/><path d="m160.01 4h-.01" fill="#f9ecb4"/><path d="m40 268c0 13.25 10.75 24 24 24h-16c-13.25 0-24-10.75-24-24s10.75-24 24-24h16c-13.25 0-24 10.75-24 24z" fill="#436786"/><path d="m224.03 108.44c-36.01 3.96-64.03 34.49-64.03 71.56-34.154 0-60.329 30.342-55.43 64h-16c-4.9-33.663 21.28-64 55.43-64 0-42.69 37.022-76.283 80.03-71.56z" fill="#436786"/><path d="m184.01 115.49c.27-26.28 21.65-47.49 47.99-47.49-26.51 0-48-21.49-48-48 0 26.51-21.49 48-48 48 26.34 0 47.73 21.22 47.99 47.5" fill="#ffdf81"/><path d="m153.42 144.38c-6 10.51-9.42 22.66-9.42 35.62-24.82 0-45.86 16.14-53.21 38.5-39.34-17.37-66.79-56.73-66.79-102.5 0-61.86 50.14-112 112-112h24c-31.17 7.93-56 38.37-56 72 0 31.87 20.72 58.91 49.42 68.38z" fill="#ffdf81"/><path d="m129.04 130.57c7.07 6.08 15.33 10.82 24.38 13.81-6 10.51-9.42 22.66-9.42 35.62-24.82 0-45.86 16.14-53.21 38.5-13.561-5.985-25.284-15.048-24-14.5 7.35-22.36 28.39-38.5 53.21-38.5 0-12.68 3.27-24.58 9.04-34.93z" fill="#ffcd76"/><path d="m152.09 143.92c1.547.563 1.402.358 1.16.76-.39-.25-.78-.5-1.16-.76z" fill="#f9ecb4"/><path d="m40 124c0 39.35 20.29 73.96 50.98 93.94-.07.18-.13.37-.19.56-39.34-17.37-66.79-56.73-66.79-102.5 0-61.86 50.14-112 112-112h24c-7.06 1.8-13.8 4.75-20 8.64-56.22 5.98-100 53.55-100 111.36z" fill="#f9ecb4"/><g fill="#5989b3"><path d="m312 412h-304c-4.418 0-8-3.582-8-8s3.582-8 8-8h304c13.233 0 24-10.767 24-24s-10.767-24-24-24-24 10.767-24 24c0 4.418-3.582 8-8 8-4.419 0-8-3.582-8-8 0-22.056 17.944-40 40-40s40 17.944 40 40-17.944 40-40 40z"/><path d="m472 508c-22.056 0-40-17.944-40-40 0-4.418 3.581-8 8-8 4.418 0 8 3.582 8 8 0 13.233 10.767 24 24 24s24-10.767 24-24-10.767-24-24-24h-304c-4.419 0-8-3.582-8-8s3.581-8 8-8h304c22.056 0 40 17.944 40 40s-17.944 40-40 40z"/><path d="m392 476h-288c-4.419 0-8-3.582-8-8s3.581-8 8-8h288c4.418 0 8 3.582 8 8s-3.582 8-8 8z"/><circle cx="72" cy="468" r="8"/><path d="m248 380h-176c-4.419 0-8-3.582-8-8s3.581-8 8-8h176c4.418 0 8 3.582 8 8s-3.582 8-8 8z"/><circle cx="40" cy="372" r="8"/><path d="m440 380h-64c-4.419 0-8-3.582-8-8s3.581-8 8-8h64c4.418 0 8 3.582 8 8s-3.582 8-8 8z"/><path d="m472 380c-4.49 0-8-3.657-8-8 0-4.357 3.525-8 8-8 4.421 0 8 3.582 8 8 0 4.417-3.578 8-8 8z"/></g></svg>