<svg id="Layer_1" enable-background="new 0 0 504 504" height="512" viewBox="0 0 504 504" width="512" xmlns="http://www.w3.org/2000/svg"><path d="m174.55 127.77c-11.53 12.77-18.55 29.68-18.55 48.23-32.643 0-58.974 27.981-55.721 61.65-54.909-11-96.279-59.5-96.279-117.65 0-66.27 53.73-120 120-120h32c-23.71 9.37-40 36.95-40 64 0 33.52 25.75 61.01 58.55 63.77z" fill="#ffdf81"/><path d="m174.55 127.77c-11.53 12.77-18.55 29.68-18.55 48.23-32.643 0-58.974 27.981-55.721 61.65-8.449-1.69-16.579-4.27-24.279-7.65v-11.65c0-30.93 25.07-56 56-56 0-16.41 5.49-31.54 14.75-43.65 8.221 5.01 17.68 8.22 27.8 9.07z" fill="#ffcd76"/><path d="m156 0c-8.471 3.34-16 9.01-22.17 16.16-99.004 4.997-148.56 121.135-86.301 196.32-26.589-22.01-43.529-55.27-43.529-92.48 0-66.27 53.73-120 120-120z" fill="#f9ecb4"/><circle cx="60" cy="192" fill="#ffcd76" r="8"/><circle cx="48" cy="180" fill="#ffcd76" r="4"/><path d="m428 288h-272c-30.93 0-56-25.07-56-56s25.07-56 56-56c0-47.91 45.994-82.413 91.92-69.21 52.411-71.932 165.158-48.807 185.34 37.4 37.31 2.69 66.74 33.82 66.74 71.81 0 39.76-32.24 72-72 72z" fill="#5989b3"/><path d="m413.1 102.89c-46.079-37.029-114.104-28.239-149.18 19.9-46.024-13.231-91.92 21.386-91.92 69.21-45.061 0-70.916 50.225-46.779 86.78-15.201-10.01-25.221-27.22-25.221-46.78 0-30.93 25.07-56 56-56 0-47.91 45.994-82.413 91.92-69.21 40.366-55.401 122.233-57.325 165.18-3.9z" fill="#436786"/><circle cx="140" cy="256" fill="#436786" r="8"/><circle cx="128" cy="244" fill="#436786" r="4"/><g fill="#5989b3"><path d="m252 456c-4.418 0-8-3.582-8-8v-128c0-4.418 3.582-8 8-8s8 3.582 8 8v128c0 4.418-3.582 8-8 8z"/><path d="m316 392h-128c-4.418 0-8-3.582-8-8s3.582-8 8-8h128c4.418 0 8 3.582 8 8s-3.582 8-8 8z"/><path d="m246.343 357.657-32-32c-3.124-3.124-3.124-8.189 0-11.313 3.125-3.124 8.189-3.124 11.314 0l26.343 26.342 26.343-26.343c3.125-3.124 8.189-3.124 11.314 0 3.124 3.124 3.124 8.189 0 11.313l-32 32c-3.125 3.125-8.189 3.125-11.314.001z"/><path d="m284 456c-2.048 0-4.095-.781-5.657-2.343l-26.343-26.343-26.343 26.343c-3.125 3.124-8.189 3.124-11.314 0-3.124-3.124-3.124-8.189 0-11.313l32-32c3.125-3.124 8.189-3.124 11.314 0l32 32c5.056 5.055 1.405 13.656-5.657 13.656z"/><path d="m316 424c-2.048 0-4.095-.781-5.657-2.343l-32-32c-3.124-3.124-3.124-8.189 0-11.313l32-32c3.125-3.124 8.189-3.124 11.314 0 3.124 3.124 3.124 8.189 0 11.313l-26.343 26.343 26.344 26.343c5.055 5.056 1.404 13.657-5.658 13.657z"/><path d="m188 424c-7.06 0-10.715-8.599-5.657-13.657l26.343-26.343-26.344-26.343c-3.124-3.124-3.124-8.189 0-11.313 3.125-3.124 8.189-3.124 11.314 0l32 32c3.124 3.124 3.124 8.189 0 11.313l-32 32c-1.561 1.562-3.608 2.343-5.656 2.343z"/><path d="m420 504c-4.418 0-8-3.582-8-8v-128c0-4.418 3.582-8 8-8s8 3.582 8 8v128c0 4.418-3.582 8-8 8z"/><path d="m484 440h-128c-4.418 0-8-3.582-8-8s3.582-8 8-8h128c4.418 0 8 3.582 8 8s-3.582 8-8 8z"/><path d="m414.343 405.657-32-32c-3.124-3.124-3.124-8.189 0-11.313 3.125-3.124 8.189-3.124 11.314 0l26.343 26.342 26.343-26.343c3.125-3.124 8.189-3.124 11.314 0 3.124 3.124 3.124 8.189 0 11.313l-32 32c-3.125 3.125-8.189 3.125-11.314.001z"/><path d="m452 504c-2.048 0-4.095-.781-5.657-2.343l-26.343-26.343-26.343 26.343c-3.125 3.124-8.189 3.124-11.314 0-3.124-3.124-3.124-8.189 0-11.313l32-32c3.125-3.124 8.189-3.124 11.314 0l32 32c5.056 5.055 1.405 13.656-5.657 13.656z"/><path d="m484 472c-2.048 0-4.095-.781-5.657-2.343l-32-32c-3.124-3.124-3.124-8.189 0-11.313l32-32c3.125-3.124 8.189-3.124 11.314 0 3.124 3.124 3.124 8.189 0 11.313l-26.343 26.343 26.344 26.343c5.055 5.056 1.404 13.657-5.658 13.657z"/><path d="m356 472c-7.06 0-10.715-8.599-5.657-13.657l26.343-26.343-26.344-26.343c-3.124-3.124-3.124-8.189 0-11.313 3.125-3.124 8.189-3.124 11.314 0l32 32c3.124 3.124 3.124 8.189 0 11.313l-32 32c-1.561 1.562-3.608 2.343-5.656 2.343z"/><path d="m84 504c-4.418 0-8-3.582-8-8v-128c0-4.418 3.582-8 8-8s8 3.582 8 8v128c0 4.418-3.582 8-8 8z"/><path d="m148 440h-128c-4.418 0-8-3.582-8-8s3.582-8 8-8h128c4.418 0 8 3.582 8 8s-3.582 8-8 8z"/><path d="m78.343 405.657-32-32c-3.124-3.124-3.124-8.189 0-11.313 3.125-3.124 8.189-3.124 11.314 0l26.343 26.342 26.343-26.343c3.125-3.124 8.189-3.124 11.314 0 3.124 3.124 3.124 8.189 0 11.313l-32 32c-3.125 3.125-8.189 3.125-11.314.001z"/><path d="m116 504c-2.048 0-4.095-.781-5.657-2.343l-26.343-26.343-26.343 26.343c-3.125 3.124-8.189 3.124-11.314 0-3.124-3.124-3.124-8.189 0-11.313l32-32c3.125-3.124 8.189-3.124 11.314 0l32 32c5.056 5.055 1.405 13.656-5.657 13.656z"/><path d="m148 472c-2.048 0-4.095-.781-5.657-2.343l-32-32c-3.124-3.124-3.124-8.189 0-11.313l32-32c3.125-3.124 8.189-3.124 11.314 0 3.124 3.124 3.124 8.189 0 11.313l-26.344 26.343 26.344 26.343c5.056 5.056 1.405 13.657-5.657 13.657z"/><path d="m20 472c-7.06 0-10.715-8.599-5.657-13.657l26.344-26.343-26.344-26.343c-3.124-3.124-3.124-8.189 0-11.313 3.125-3.124 8.189-3.124 11.314 0l32 32c3.124 3.124 3.124 8.189 0 11.313l-32 32c-1.562 1.562-3.609 2.343-5.657 2.343z"/></g></svg>