<svg id="Layer_1" enable-background="new 0 0 512 512" height="512" viewBox="0 0 512 512" width="512" xmlns="http://www.w3.org/2000/svg"><path d="m128 48c-4.418 0-8-3.582-8-8v-32c0-4.418 3.582-8 8-8s8 3.582 8 8v32c0 4.418-3.582 8-8 8z" fill="#ffdf81"/><path d="m40 136h-32c-4.418 0-8-3.581-8-8s3.582-8 8-8h32c4.418 0 8 3.581 8 8s-3.582 8-8 8z" fill="#ffdf81"/><path d="m65.779 73.78c-2.048 0-4.095-.781-5.657-2.343l-25.779-25.78c-3.124-3.124-3.124-8.189 0-11.313 3.126-3.125 8.19-3.124 11.314 0l25.779 25.78c5.056 5.055 1.406 13.656-5.657 13.656z" fill="#ffdf81"/><path d="m190.221 73.78c-7.061 0-10.714-8.6-5.657-13.657l25.779-25.78c3.125-3.124 8.189-3.124 11.314 0 3.124 3.124 3.124 8.189 0 11.313l-25.779 25.78c-1.563 1.562-3.609 2.344-5.657 2.344z" fill="#ffdf81"/><path d="m40 224c-7.06 0-10.715-8.599-5.657-13.657l25.779-25.78c3.125-3.124 8.189-3.124 11.314 0 3.124 3.124 3.124 8.189 0 11.313l-25.779 25.78c-1.562 1.563-3.609 2.344-5.657 2.344z" fill="#ffdf81"/><path d="m214.9 114.05c-31.51 7.67-54.9 36.08-54.9 69.95-21.63 0-40.39 12.26-49.71 30.21-40.11-8.19-70.29-43.68-70.29-86.21 0-48.6 39.4-88 88-88 43.85 0 80.21 32.08 86.9 74.05z" fill="#ffdf81"/><path d="m197.71 74.3c-57.029-44.085-141.71-3.868-141.71 69.7 0 20.21 6.82 38.84 18.29 53.7-20.86-16.08-34.29-41.33-34.29-69.7 0-48.6 39.4-88 88-88 28.38 0 53.63 13.44 69.71 34.3z" fill="#f9ecb4"/><path d="m214.9 114.05c-31.51 7.67-54.9 36.08-54.9 69.95-21.63 0-40.391 12.26-49.71 30.21-21.04-4.3-39.351-16.11-52-32.51 10.399 8.04 22.649 13.79 36 16.51 9.319-17.95 28.08-30.21 49.71-30.21 0-33.87 23.391-62.28 54.9-69.95-2.36-14.81-8.41-28.38-17.19-39.75 17.37 13.39 29.59 33.14 33.19 55.75z" fill="#ffcd76"/><circle cx="88" cy="176" fill="#ffcd76" r="8"/><circle cx="76" cy="164" fill="#ffcd76" r="4"/><path d="m432 296h-272c-30.93 0-56-25.07-56-56s25.07-56 56-56c0-47.91 45.994-82.413 91.92-69.21 52.411-71.932 165.158-48.807 185.34 37.4 37.31 2.69 66.74 33.82 66.74 71.81 0 39.76-32.24 72-72 72z" fill="#add9ff"/><path d="m417.1 110.89c-46.079-37.029-114.104-28.239-149.18 19.9-46.024-13.231-91.92 21.386-91.92 69.21-45.061 0-70.916 50.225-46.779 86.78-15.201-10.01-25.221-27.22-25.221-46.78 0-30.93 25.07-56 56-56 0-47.91 45.994-82.413 91.92-69.21 40.366-55.401 122.233-57.325 165.18-3.9z" fill="#d6ecff"/><circle cx="144" cy="264" fill="#d6ecff" r="8"/><circle cx="132" cy="252" fill="#d6ecff" r="4"/><g fill="#5989b3"><path d="m312 416h-304c-4.418 0-8-3.582-8-8s3.582-8 8-8h304c13.233 0 24-10.767 24-24s-10.767-24-24-24-24 10.767-24 24c0 4.418-3.582 8-8 8s-8-3.582-8-8c0-22.056 17.944-40 40-40s40 17.944 40 40-17.944 40-40 40z"/><path d="m472 512c-22.056 0-40-17.944-40-40 0-4.418 3.582-8 8-8s8 3.582 8 8c0 13.233 10.767 24 24 24s24-10.767 24-24-10.767-24-24-24h-304c-4.418 0-8-3.582-8-8s3.582-8 8-8h304c22.056 0 40 17.944 40 40s-17.944 40-40 40z"/><path d="m392 480h-288c-4.418 0-8-3.582-8-8s3.582-8 8-8h288c4.418 0 8 3.582 8 8s-3.582 8-8 8z"/><path d="m72 480c-4.416 0-8-3.579-8-8 0-4.418 3.577-8 8-8 4.415 0 8 3.575 8 8 0 4.417-3.58 8-8 8z"/><path d="m248 384h-176c-4.418 0-8-3.582-8-8s3.582-8 8-8h176c4.418 0 8 3.582 8 8s-3.582 8-8 8z"/><circle cx="40" cy="376" r="8"/><path d="m440 384h-64c-4.418 0-8-3.582-8-8s3.582-8 8-8h64c4.418 0 8 3.582 8 8s-3.582 8-8 8z"/><path d="m472 384c-4.487 0-8-3.653-8-8 0-4.357 3.524-8 8-8 4.419 0 8 3.579 8 8 0 4.415-3.576 8-8 8z"/></g></svg>