<svg id="Layer_1" enable-background="new 0 0 512 512" height="512" viewBox="0 0 512 512" width="512" xmlns="http://www.w3.org/2000/svg"><path d="m178.55 131.77c-11.53 12.77-18.55 29.68-18.55 48.23-32.644 0-58.973 27.981-55.72 61.65-54.91-11-96.28-59.5-96.28-117.65 0-66.27 53.73-120 120-120h32c-23.71 9.37-40 36.95-40 64 0 33.52 25.75 61.01 58.55 63.77z" fill="#ffdf81"/><path d="m178.55 131.77c-11.53 12.77-18.55 29.68-18.55 48.23-32.644 0-58.973 27.981-55.72 61.65-8.45-1.69-16.58-4.27-24.28-7.65v-11.65c0-30.93 25.07-56 56-56 0-16.41 5.49-31.54 14.75-43.65 8.22 5.01 17.68 8.22 27.8 9.07z" fill="#ffcd76"/><path d="m160 4c-8.47 3.34-16 9.01-22.17 16.16-99.005 4.997-148.56 121.137-86.3 196.32-26.59-22.01-43.53-55.27-43.53-92.48 0-66.27 53.73-120 120-120z" fill="#f9ecb4"/><circle cx="64" cy="196" fill="#ffcd76" r="8"/><circle cx="52" cy="184" fill="#ffcd76" r="4"/><path d="m432 292h-272c-30.93 0-56-25.07-56-56s25.07-56 56-56c0-47.91 45.994-82.413 91.92-69.21 52.411-71.932 165.158-48.807 185.34 37.4 37.31 2.69 66.74 33.82 66.74 71.81 0 39.76-32.24 72-72 72z" fill="#5989b3"/><path d="m417.1 106.89c-46.079-37.029-114.104-28.239-149.18 19.9-46.024-13.231-91.92 21.386-91.92 69.21-45.061 0-70.917 50.224-46.78 86.78-15.2-10.01-25.22-27.22-25.22-46.78 0-30.93 25.07-56 56-56 0-47.91 45.994-82.413 91.92-69.21 40.366-55.401 122.233-57.325 165.18-3.9z" fill="#436786"/><circle cx="144" cy="260" fill="#436786" r="8"/><circle cx="132" cy="248" fill="#436786" r="4"/><g fill="#5989b3"><path d="m312 412h-304c-4.418 0-8-3.582-8-8s3.582-8 8-8h304c13.233 0 24-10.767 24-24s-10.767-24-24-24-24 10.767-24 24c0 4.418-3.582 8-8 8-4.419 0-8-3.582-8-8 0-22.056 17.944-40 40-40s40 17.944 40 40-17.944 40-40 40z"/><path d="m472 508c-22.056 0-40-17.944-40-40 0-4.418 3.581-8 8-8 4.418 0 8 3.582 8 8 0 13.233 10.767 24 24 24s24-10.767 24-24-10.767-24-24-24h-304c-4.419 0-8-3.582-8-8s3.581-8 8-8h304c22.056 0 40 17.944 40 40s-17.944 40-40 40z"/><path d="m392 476h-288c-4.419 0-8-3.582-8-8s3.581-8 8-8h288c4.418 0 8 3.582 8 8s-3.582 8-8 8z"/><circle cx="72" cy="468" r="8"/><path d="m248 380h-176c-4.419 0-8-3.582-8-8s3.581-8 8-8h176c4.418 0 8 3.582 8 8s-3.582 8-8 8z"/><circle cx="40" cy="372" r="8"/><path d="m440 380h-64c-4.419 0-8-3.582-8-8s3.581-8 8-8h64c4.418 0 8 3.582 8 8s-3.582 8-8 8z"/><circle cx="472" cy="372" r="8"/></g></svg>