<svg id="Layer_1" enable-background="new 0 0 496 496" height="512" viewBox="0 0 496 496" width="512" xmlns="http://www.w3.org/2000/svg"><path d="m248 80c-92.784 0-168 75.216-168 168v88c0 44.183-35.817 80-80 80h248c92.784 0 168-75.216 168-168v-88c0-44.183 35.817-80 80-80z" fill="#c2e3ff"/><circle cx="248" cy="248" fill="#5989b3" r="120"/><g fill="#436786"><circle cx="248" cy="248.001" r="88"/><path d="m248 376c-4.419 0-8-3.582-8-8s3.581-8 8-8c61.757 0 112-50.243 112-112 0-4.419 3.581-8 8-8 4.418 0 8 3.581 8 8 0 70.58-57.42 128-128 128z"/><path d="m128 256c-4.419 0-8-3.582-8-8 0-70.58 57.42-128 128-128 4.418 0 8 3.581 8 8 0 4.418-3.582 8-8 8-61.757 0-112 50.243-112 112 0 4.419-3.581 8-8 8z"/><path d="m358.076 208.133c-3.087 0-6.027-1.797-7.338-4.808-11.315-25.982-31.84-46.561-57.795-57.945-4.046-1.774-5.888-6.494-4.113-10.54 1.774-4.046 6.493-5.889 10.54-4.113 29.657 13.008 53.109 36.522 66.037 66.21 2.31 5.306-1.614 11.196-7.331 11.196z"/><path d="m200.135 366.077c-1.066 0-2.15-.214-3.19-.667-29.764-12.959-53.311-36.481-66.302-66.231-1.768-4.049.081-8.765 4.13-10.533 4.048-1.77 8.765.081 10.533 4.13 11.37 26.038 31.977 46.623 58.026 57.965 7.921 3.448 5.447 15.336-3.197 15.336z"/></g></svg>