<svg id="Layer_1" enable-background="new 0 0 503.998 503.998" height="512" viewBox="0 0 503.998 503.998" width="512" xmlns="http://www.w3.org/2000/svg"><path d="m383.679 79.998h-.02c58.047-31.688-14.122-72-131.66-72-117.406 0-189.747 40.29-131.66 72-.103 0-20.34 9.889-20.34 24 0 9.021 7.886 17.459 21.589 24.668-.423-.223-.857-.443-1.27-.668-30.955 16.903-25.187 37.299 8.1 51.95-.102 0-12.42 8.584-12.42 20.05 0 8.74 6.62 16.94 18.18 24-30.191 18.438-20.705 40.208 12.99 54.58-22.299 14.612-19.284 32.197 4.25 45.42 6.28 3.53 13.9 6.71 22.61 9.44-20.817 18.026-7.359 37.973 20.734 48.93-.101 0-.542-1.141 57.236 121.63 57.617-122.431 57.339-121.63 57.236-121.63 28.052-10.941 41.574-30.885 20.734-48.93 8.71-2.73 16.33-5.91 22.61-9.44 23.542-13.228 26.542-30.813 4.25-45.42.353 0 31.17-12.141 31.17-30.58 0-8.74-6.62-16.94-18.18-24 21.163-12.925 24.834-29.439 5.79-44.05h-.03c33.194-14.611 39.13-35.007 8.1-51.95-.412.225-.846.445-1.27.668 28.621-15.056 28.552-33.771 1.271-48.668z" fill="#c2e3ff"/><path d="m309.239 382.368c-32.762 12.802-81.501 12.886-114.48 0l57.24 121.63z" fill="#436786"/><path d="m371.999 299.998c0 37.938-121.503 57.434-197.97 33.44-16.374-5.132-42.03-16.285-42.03-33.44 0-7.78 5.51-15.09 15.17-21.42 54.457 23.223 155.188 23.23 209.66 0 9.66 6.33 15.17 13.64 15.17 21.42z" fill="#5989b3"/><path d="m128.389 179.948c-19.056 14.62-15.358 31.134 5.79 44.05 52.358 31.936 183.161 32.009 235.64 0 21.163-12.925 24.834-29.439 5.79-44.05" fill="#5989b3"/><path d="m251.999 295.998c-104.893 0-169.808-40.249-117.82-72 52.358 31.936 183.161 32.009 235.64 0 52.21 31.886-13.27 72-117.82 72z" fill="#436786"/><path d="m251.999 199.998c-117.57 0-189.67-40.335-131.68-72 58.505 31.936 204.72 32.009 263.36 0 57.898 31.615-13.856 72-131.68 72z" fill="#436786"/><ellipse cx="251.999" cy="71.998" fill="#5989b3" rx="128" ry="32"/><path d="m142.11 97.568c-32.783-10.353-50.111-24.727-50.111-41.57 0-53.532 175.104-71.501 269.889-41.57 32.783 10.352 50.111 24.727 50.111 41.57s-17.328 31.217-50.111 41.57c-60.952 19.247-158.791 19.259-219.778 0zm4.818-67.882c-28.702 9.064-38.929 19.535-38.929 26.313s10.227 17.249 38.929 26.312c57.834 18.264 152.294 18.268 210.143 0 28.702-9.064 38.929-19.535 38.929-26.312s-10.228-17.249-38.93-26.313c-57.834-18.264-152.294-18.269-210.142 0z" fill="#436786"/></svg>