<svg id="Layer_1" enable-background="new 0 0 496 496" height="512" viewBox="0 0 496 496" width="512" xmlns="http://www.w3.org/2000/svg"><path d="m496 0v224.001c0 8.836-7.164 15.999-16 15.999-8.837 0-16-7.164-16-15.999 0-162.763 0-230.606 0-64.001 0 8.836-7.164 16-16 16-8.837 0-16-7.164-16-16v-56c0-22.091-17.908-40-40-40s-40 17.909-40 40v16c0 8.837-7.164 16-16 16s-16-7.163-16-16c0-36.664 0 64.34 0 64 0 30.928-25.072 56-56 56v64c0 8.837-7.163 16-16 16-8.836 0-15.999-7.163-15.999-16l-.001-64c-30.928 0-56-25.072-56-56 0-30.323 0-94.447 0-64 0 8.837-7.164 16-16 16s-16-7.163-16-16v-16c0-22.091-17.909-40-40-40s-40 17.909-40 40v56c0 8.836-7.164 16-16 16s-16-7.164-16-16c0-266.553 0 109.774 0 64.001 0 8.836-7.163 15.999-16 15.999-8.836 0-16-7.164-16-15.999v-224.001z" fill="#99d0ff"/><path d="m0 0h496v32h-496z" fill="#5989b3"/><g fill="#c2e3ff"><path d="m0 184c0 8.837 7.164 16 16 16 8.837 0 16-7.163 16-16v40c0 8.837-7.163 16-16 16-8.836 0-16-7.163-16-16z"/><path d="m32 120c0 8.837 7.164 16 16 16 8.837 0 16-7.163 16-16v40c0 8.837-7.163 16-16 16-8.836 0-16-7.163-16-16z"/><path d="m232 264c0 8.837 7.164 16 16 16 8.837 0 16-7.163 16-16v40c0 8.837-7.163 16-16 16-8.836 0-16-7.163-16-16z"/><path d="m432 120c0 8.837 7.164 16 16 16 8.837 0 16-7.163 16-16v40c0 8.837-7.163 16-16 16-8.836 0-16-7.163-16-16z"/><path d="m464 184c0 8.837 7.164 16 16 16 8.837 0 16-7.163 16-16v40c0 8.837-7.163 16-16 16-8.836 0-16-7.163-16-16z"/><path d="m280 464-32-96-31.999 96c0 17.673 14.327 32 31.999 32s32-14.327 32-32z"/><path d="m135.999 320-32-96-31.999 96c0 17.673 14.327 32 31.999 32 17.673 0 32-14.327 32-32z"/><path d="m424 320-32-96-32 96c0 17.673 14.326 32 32 32 17.672 0 32-14.327 32-32z"/></g></svg>