<svg id="Layer_1" enable-background="new 0 0 512 512" height="512" viewBox="0 0 512 512" width="512" xmlns="http://www.w3.org/2000/svg"><path d="m56 504v-144l128-112 144 80 128-112v288z" fill="#99d0ff"/><path d="m496 496h-32c0-259.401.038-248.143-.068-248.992 13.836-3.529 24.068-16.072 24.068-31.008 0-17.674-14.327-32-32-32-23.906 0-39.277 25.285-28.552 46.444-.656.442-80.674 70.426-81.341 71.173-12.907-8.875-30.46-7.111-41.352 4.402-.826-.604-89.045-49.594-89.797-49.898 5.306-20.295-10.012-40.121-30.958-40.121-23.906 0-39.277 25.285-28.552 46.444-.657.444-80.671 70.422-81.341 71.173-20.911-14.379-50.107.403-50.107 26.383 0 14.935 10.232 27.478 24.068 31.008-.106.848-.068-6.535-.068 104.992h-32c-4.418 0-8 3.582-8 8s3.582 8 8 8h208c4.418 0 8-3.582 8-8s-3.582-8-8-8h-32c0-225.925.038-216.143-.069-217 5.945-1.519 11.225-4.697 15.313-9.02.68.497 88.94 49.559 89.796 49.902-4.527 17.32 6.002 34.782 23.027 39.125-.104.844-.067-7.968-.067 136.993h-32c-4.419 0-8 3.582-8 8s3.581 8 8 8h208c4.418 0 8-3.582 8-8s-3.582-8-8-8zm-432 0c0-111.575.038-104.144-.068-104.992 19.861-5.066 29.824-27.295 20.62-45.453.832-.562 80.804-70.57 81.342-71.172 3.051 2.098 6.489 3.665 10.177 4.607-.11.873-.071-15.282-.071 217.01zm271.932-136.992c19.861-5.066 29.824-27.295 20.62-45.453.832-.562 80.804-70.57 81.342-71.172 3.051 2.098 6.489 3.665 10.177 4.607-.109.87-.071-10.258-.071 249.01h-112c0-145.326.038-136.143-.068-136.992z" fill="#c2e3ff"/><path d="m256 496c-4.508 0-8 3.673-8 8 0 4.34 3.506 8 8 8 4.415 0 8-3.576 8-8 0-4.417-3.577-8-8-8z" fill="#c2e3ff"/><g fill="#99d0ff"><path d="m104 192h-12.686l2.343-2.343c3.125-3.125 3.125-8.189 0-11.314-3.124-3.123-8.189-3.123-11.313 0l-13.658 13.657h-4.686v-4.686l13.657-13.657c3.125-3.125 3.125-8.189 0-11.314-3.124-3.123-8.189-3.123-11.313 0l-2.344 2.343v-12.686c0-4.418-3.582-8-8-8s-8 3.582-8 8v12.686l-2.343-2.343c-3.124-3.123-8.189-3.123-11.313 0-3.125 3.125-3.125 8.189 0 11.314l13.656 13.657v4.686h-4.686l-13.657-13.657c-3.124-3.123-8.189-3.123-11.313 0-3.125 3.125-3.125 8.189 0 11.314l2.342 2.343h-12.686c-4.418 0-8 3.582-8 8s3.582 8 8 8h12.686l-2.343 2.343c-5.054 5.055-1.407 13.657 5.657 13.657 4.359 0 4.897-1.583 19.314-16h4.686v4.686l-13.657 13.657c-3.125 3.125-3.125 8.189 0 11.314 3.124 3.123 8.189 3.123 11.313 0l2.344-2.343v12.686c0 4.418 3.582 8 8 8s8-3.582 8-8v-12.686c2.477 2.476 4.166 4.686 8 4.686 7.063 0 10.711-8.602 5.657-13.657l-13.657-13.657v-4.686h4.686l13.657 13.657c3.125 3.124 8.189 3.123 11.313 0 3.125-3.125 3.125-8.189 0-11.314l-2.342-2.343h12.686c4.418 0 8-3.582 8-8s-3.582-8-8-8z"/><path d="m232 80h-12.686l2.343-2.343c3.125-3.125 3.125-8.189 0-11.314-3.124-3.123-8.189-3.123-11.313 0l-13.658 13.657h-4.686v-4.686l13.657-13.657c3.125-3.125 3.125-8.189 0-11.314-3.124-3.123-8.189-3.123-11.313 0l-2.344 2.343v-12.686c0-4.418-3.581-8-8-8s-8 3.582-8 8v12.686l-2.343-2.343c-3.124-3.123-8.189-3.123-11.313 0-3.124 3.125-3.124 8.189 0 11.314l13.656 13.657v4.686h-4.686l-13.657-13.657c-3.124-3.123-8.189-3.123-11.313 0-3.124 3.125-3.124 8.189 0 11.314l2.342 2.343h-12.686c-4.419 0-8 3.582-8 8s3.581 8 8 8h12.686l-2.343 2.343c-5.054 5.055-1.407 13.657 5.657 13.657 4.359 0 4.897-1.583 19.314-16h4.686v4.686l-13.657 13.657c-3.124 3.125-3.124 8.189 0 11.314 3.124 3.123 8.189 3.123 11.313 0l2.343-2.343v12.686c0 4.418 3.581 8 8 8s8-3.582 8-8v-12.686c2.477 2.476 4.166 4.686 8 4.686 7.063 0 10.711-8.602 5.657-13.657l-13.656-13.657v-4.686h4.686l13.657 13.657c3.125 3.124 8.189 3.123 11.313 0 3.125-3.125 3.125-8.189 0-11.314l-2.342-2.343h12.686c4.418 0 8-3.582 8-8s-3.582-8-8-8z"/><path d="m504 48h-12.686l2.343-2.343c3.125-3.125 3.125-8.189 0-11.314-3.124-3.123-8.189-3.123-11.313 0l-13.658 13.657h-4.686v-4.686l13.657-13.657c3.125-3.125 3.125-8.189 0-11.314-3.124-3.123-8.189-3.123-11.313 0l-2.344 2.342v-12.685c0-4.418-3.582-8-8-8-4.419 0-8 3.582-8 8v12.685l-2.343-2.343c-3.124-3.123-8.189-3.123-11.313 0-3.125 3.125-3.125 8.189 0 11.314l13.656 13.658v4.686h-4.686l-13.657-13.657c-3.124-3.123-8.189-3.123-11.313 0-3.125 3.125-3.125 8.189 0 11.314l2.342 2.343h-12.686c-4.419 0-8 3.582-8 8s3.581 8 8 8h12.686l-2.343 2.343c-5.054 5.055-1.407 13.657 5.657 13.657 4.359 0 4.897-1.583 19.314-16h4.686v4.686l-13.657 13.657c-3.125 3.125-3.125 8.189 0 11.314 3.124 3.123 8.189 3.123 11.313 0l2.344-2.343v12.686c0 4.418 3.581 8 8 8 4.418 0 8-3.582 8-8v-12.686c2.477 2.476 4.166 4.686 8 4.686 7.063 0 10.711-8.602 5.657-13.657l-13.657-13.657v-4.686h4.686l13.657 13.657c3.125 3.124 8.189 3.123 11.313 0 3.125-3.125 3.125-8.189 0-11.314l-2.342-2.343h12.686c4.418 0 8-3.582 8-8s-3.582-8-8-8z"/><path d="m376 160h-12.686l2.343-2.343c3.125-3.125 3.125-8.189 0-11.314-3.124-3.123-8.189-3.123-11.313 0l-13.658 13.657h-4.686v-4.686l13.657-13.657c3.125-3.125 3.125-8.189 0-11.314-3.124-3.123-8.189-3.123-11.313 0l-2.344 2.343v-12.686c0-4.418-3.582-8-8-8-4.419 0-8 3.582-8 8v12.686l-2.343-2.343c-3.124-3.123-8.189-3.123-11.313 0-3.125 3.125-3.125 8.189 0 11.314l13.656 13.657v4.686h-4.686l-13.657-13.657c-3.124-3.123-8.189-3.123-11.313 0-3.125 3.125-3.125 8.189 0 11.314l2.343 2.343h-12.687c-4.419 0-8 3.582-8 8s3.581 8 8 8h12.686l-2.343 2.343c-5.054 5.055-1.407 13.657 5.657 13.657 4.359 0 4.897-1.583 19.314-16h4.686v4.686l-13.657 13.657c-3.125 3.125-3.125 8.189 0 11.314 3.124 3.123 8.189 3.123 11.313 0l2.343-2.343v12.686c0 4.418 3.581 8 8 8 4.418 0 8-3.582 8-8v-12.686c2.477 2.476 4.166 4.686 8 4.686 7.063 0 10.711-8.602 5.657-13.657l-13.656-13.657v-4.686h4.686l13.657 13.657c3.125 3.124 8.189 3.123 11.313 0 3.125-3.125 3.125-8.189 0-11.314l-2.342-2.343h12.686c4.418 0 8-3.582 8-8s-3.582-8-8-8z"/></g></svg>