<svg id="Layer_1" enable-background="new 0 0 504 504" height="512" viewBox="0 0 504 504" width="512" xmlns="http://www.w3.org/2000/svg"><circle cx="52" cy="192" fill="#ffdf81" r="48"/><circle cx="180.001" cy="80" fill="#ffdf81" r="48"/><path d="m52 144c-26.51 0-48 21.49-48 48s21.49 48 48 48 48-21.49 48-48-21.49-48-48-48zm0 80c-17.67 0-32-14.33-32-32s14.33-32 32-32 32 14.33 32 32-14.33 32-32 32z" fill="#ffcd76"/><path d="m180 32c-26.51 0-48 21.49-48 48s21.49 48 48 48 48-21.49 48-48-21.49-48-48-48zm0 80c-17.67 0-32-14.33-32-32s14.33-32 32-32 32 14.33 32 32-14.33 32-32 32z" fill="#ffcd76"/><circle cx="452" cy="48" fill="#ffdf81" r="48"/><circle cx="324" cy="160" fill="#ffdf81" r="48"/><path d="m324 112c-26.51 0-48 21.49-48 48s21.49 48 48 48 48-21.49 48-48-21.49-48-48-48zm0 80c-17.67 0-32-14.33-32-32s14.33-32 32-32 32 14.33 32 32-14.33 32-32 32z" fill="#ffcd76"/><path d="m452 0c-26.51 0-48 21.49-48 48s21.49 48 48 48 48-21.49 48-48-21.49-48-48-48zm0 80c-17.67 0-32-14.33-32-32s14.33-32 32-32 32 14.33 32 32-14.33 32-32 32z" fill="#ffcd76"/><path d="m52 496v-144l128-112 144 80 128-112v288z" fill="#ffb562"/><g fill="#ffdf81"><path d="m492 488h-32c0-259.442.038-248.148-.068-248.992 13.836-3.529 24.068-16.072 24.068-31.008 0-17.674-14.327-32-32-32-23.907 0-39.275 25.282-28.553 46.444-.649.438-80.672 70.424-81.341 71.173-12.909-8.877-30.462-7.109-41.352 4.402-.826-.604-89.045-49.594-89.797-49.898 5.307-20.295-10.011-40.121-30.957-40.121-23.906 0-39.277 25.285-28.552 46.444-.657.444-80.671 70.422-81.341 71.173-20.911-14.379-50.107.403-50.107 26.383 0 14.935 10.232 27.478 24.068 31.008-.106.848-.068-6.535-.068 104.992h-32c-4.418 0-8 3.582-8 8s3.582 8 8 8h208c4.419 0 8-3.582 8-8s-3.581-8-8-8h-32c0-225.925.038-216.143-.069-217 5.945-1.519 11.225-4.697 15.313-9.02.68.497 88.94 49.559 89.796 49.902-4.527 17.32 6.003 34.782 23.027 39.125-.104.84-.067-8.797-.067 136.993h-32c-4.418 0-8 3.582-8 8s3.582 8 8 8h208c4.418 0 8-3.582 8-8s-3.582-8-8-8zm-432 0c0-111.575.038-104.144-.068-104.992 19.861-5.066 29.824-27.295 20.62-45.453.832-.562 80.804-70.57 81.342-71.172 3.051 2.098 6.489 3.665 10.177 4.607-.11.873-.071-15.282-.071 217.01zm271.932-136.992c19.861-5.066 29.824-27.294 20.62-45.453.826-.558 80.805-70.571 81.342-71.172 3.051 2.098 6.489 3.665 10.177 4.607-.11.885-.071-10.515-.071 249.01h-112c0-146.021.038-136.148-.068-136.992z"/><path d="m252 488c-4.518 0-8 3.682-8 8 0 4.34 3.506 8 8 8 4.42 0 8-3.579 8-8 0-4.418-3.577-8-8-8z"/></g></svg>