<svg id="Layer_1" enable-background="new 0 0 512 512" height="512" viewBox="0 0 512 512" width="512" xmlns="http://www.w3.org/2000/svg"><g fill="#5989b3"><path d="m24 180c0-17.673 14.327-32 32-32s32 14.327 32 32c8.837 0 16 7.163 16 16s-7.163 16-16 16h-64c-8.837 0-16-7.163-16-16s7.163-16 16-16z"/><path d="m152 68c0-17.673 14.327-32 32-32s32 14.327 32 32c8.837 0 16 7.163 16 16s-7.163 16-16 16h-64c-8.837 0-16-7.163-16-16s7.163-16 16-16"/><path d="m424 36c0-17.673 14.327-32 32-32s32 14.327 32 32c8.837 0 16 7.163 16 16s-7.163 16-16 16h-64c-8.837 0-16-7.163-16-16s7.163-16 16-16z"/><path d="m296 148c0-17.673 14.327-32 32-32s32 14.327 32 32c8.837 0 16 7.163 16 16s-7.163 16-16 16h-64c-8.837 0-16-7.163-16-16s7.163-16 16-16z"/><path d="m56 500v-144l128-112 144 80 128-112v288z"/></g><path d="m504 492h-40c0-259.442.038-248.148-.068-248.992 13.836-3.529 24.068-16.072 24.068-31.008 0-17.674-14.327-32-32-32-23.907 0-39.275 25.282-28.553 46.444-.649.438-80.672 70.424-81.341 71.173-12.909-8.877-30.462-7.109-41.352 4.402-.827-.605-89.049-49.597-89.798-49.898 5.311-20.293-10.011-40.121-30.956-40.121-23.907 0-39.275 25.282-28.553 46.444-.649.438-80.672 70.424-81.341 71.173-20.91-14.379-50.106.403-50.106 26.383 0 14.935 10.232 27.478 24.068 31.008-.106.844-.068-6.537-.068 104.992h-40c-4.418 0-8 3.582-8 8s3.582 8 8 8h216c4.418 0 8-3.582 8-8s-3.582-8-8-8h-32c0-232.166.038-216.154-.068-217 5.944-1.519 11.225-4.697 15.313-9.02.689.503 88.943 49.56 89.797 49.902-4.527 17.32 6.003 34.782 23.027 39.125-.106.84-.069-8.797-.069 136.993h-32c-4.418 0-8 3.582-8 8s3.582 8 8 8h216c4.418 0 8-3.582 8-8s-3.582-8-8-8zm-440 0c0-111.57.038-104.148-.068-104.992 19.861-5.066 29.824-27.294 20.62-45.453.826-.558 80.805-70.571 81.342-71.172 3.051 2.098 6.489 3.665 10.177 4.607-.109.873-.071-12.741-.071 217.01zm271.932-136.992c19.861-5.066 29.824-27.294 20.62-45.453.826-.558 80.805-70.571 81.342-71.172 3.051 2.098 6.489 3.665 10.177 4.607-.11.885-.071-10.515-.071 249.01h-112c0-146.021.038-136.148-.068-136.992z" fill="#99d0ff"/><path d="m256 492c-4.509 0-8 3.673-8 8 0 4.341 3.506 8 8 8 4.42 0 8-3.579 8-8 0-4.418-3.577-8-8-8z" fill="#99d0ff"/></svg>