<svg id="Layer_1" enable-background="new 0 0 512 512" height="512" viewBox="0 0 512 512" width="512" xmlns="http://www.w3.org/2000/svg"><circle cx="256" cy="256" fill="#ffdf81" r="216"/><circle cx="256" cy="256" fill="#ffcd76" r="128"/><path d="m152 104s-56 0-56 64c0-64-56-64-56-64s56 0 56-64c0 64 56 64 56 64z" fill="#f9ecb4"/><path d="m152 408s-56 0-56 64c0-64-56-64-56-64s56 0 56-64c0 64 56 64 56 64z" fill="#f9ecb4"/><path d="m472 104s-56 0-56 64c0-64-56-64-56-64s56 0 56-64c0 64 56 64 56 64z" fill="#f9ecb4"/><path d="m472 408s-56 0-56 64c0-64-56-64-56-64s56 0 56-64c0 64 56 64 56 64z" fill="#f9ecb4"/><g fill="#ffcd76"><path d="m288 32h-24v-24c0-4.418-3.582-8-8-8-4.419 0-8 3.582-8 8v24h-24c-4.419 0-8 3.582-8 8s3.581 8 8 8h24v24c0 4.418 3.581 8 8 8 4.418 0 8-3.582 8-8v-24h24c4.418 0 8-3.582 8-8s-3.582-8-8-8z"/><path d="m288 464h-24v-24c0-4.418-3.582-8-8-8-4.419 0-8 3.582-8 8v24h-24c-4.419 0-8 3.582-8 8s3.581 8 8 8h24v24c0 4.418 3.581 8 8 8 4.418 0 8-3.582 8-8v-24h24c4.418 0 8-3.582 8-8s-3.582-8-8-8z"/><path d="m504 248h-24v-24c0-4.418-3.582-8-8-8s-8 3.582-8 8v24h-24c-4.418 0-8 3.582-8 8s3.582 8 8 8h24v24c0 4.418 3.582 8 8 8s8-3.582 8-8v-24h24c4.418 0 8-3.582 8-8s-3.582-8-8-8z"/><path d="m72 248h-24v-24c0-4.418-3.582-8-8-8-4.419 0-8 3.582-8 8v24h-24c-4.419 0-8 3.582-8 8s3.581 8 8 8h24v24c0 4.418 3.581 8 8 8 4.418 0 8-3.582 8-8v-24h24c4.418 0 8-3.582 8-8s-3.582-8-8-8z"/></g><path d="m384 248c-.301 0-30.458-.173-60.422-15.155-3.952-1.977-8.758-.373-10.733 3.577-1.976 3.952-.374 8.758 3.578 10.733 7.404 3.702 14.789 6.591 21.81 8.845-39.834 12.788-69.025 38.645-82.232 76.705-12.676-36.525-40.708-63.375-82.233-76.705 39.739-12.757 68.983-38.555 82.22-76.672 3.101 8.966 7.1 17.314 11.985 25.005 2.369 3.731 7.312 4.833 11.043 2.464 3.729-2.369 4.832-7.314 2.463-11.042-11.598-18.259-17.479-41.055-17.479-67.755 0-4.418-3.582-8-8-8-4.419 0-8 3.582-8 8 0 49.594-19.884 84.788-59.1 104.605-30.883 15.606-60.901 15.355-61.003 15.397-4.24 0-7.896 3.538-7.896 7.998 0 4.413 3.574 7.991 7.985 8 15.76 0 41.262 5.465 60.915 15.396 39.215 19.816 59.099 55.01 59.099 104.604 0 4.418 3.581 8 8 8 4.418 0 8-3.582 8-8 0-49.594 19.884-84.788 59.1-104.604 29.959-15.139 60.604-15.393 60.9-15.396 4.418 0 8-3.582 8-8s-3.582-8-8-8z" fill="#ffb562"/><path d="m296 232c4.51 0 8-3.674 8-8 0-4.417-3.577-8-8-8-4.419 0-8 3.577-8 8 0 4.334 3.497 8 8 8z" fill="#ffb562"/></svg>