<svg id="Layer_1" enable-background="new 0 0 496 496" height="512" viewBox="0 0 496 496" width="512" xmlns="http://www.w3.org/2000/svg"><path d="m123.995 351.99c-19.43 14.6-32 37.84-32 64.01 0 44.18 35.82 80 80 80s80-35.82 80-80c0-26.17-12.57-49.41-32-64.01v-303.99c0-26.51-21.49-48-48-48s-48 21.49-48 48z" fill="#c2e3ff"/><path d="m187.995 370.73v-322.73c0-8.84-7.16-16-16-16s-16 7.16-16 16v322.73c-18.641 6.59-32 24.369-32 45.27 0 26.51 21.49 48 48 48s48-21.49 48-48c0-20.9-13.359-38.68-32-45.27z" fill="#5989b3"/><path d="m187.995 304v-256c0-8.84-7.16-16-16-16s-16 7.16-16 16v256z" fill="#99d0ff"/><path d="m187.995 176v-128c0-8.84-7.16-16-16-16s-16 7.16-16 16v128z" fill="#d6ecff"/><path d="m383.309 104h12.687c4.418 0 8-3.582 8-8s-3.582-8-8-8h-12.687l18.344-18.343c3.124-3.125 3.124-8.189 0-11.314-3.125-3.123-8.189-3.123-11.314 0l-29.658 29.657h-20.685v-20.686l29.657-29.657c3.124-3.125 3.124-8.189 0-11.314-3.125-3.123-8.189-3.123-11.314 0l-18.343 18.343v-12.686c0-4.418-3.582-8-8-8s-8 3.582-8 8v12.686l-18.343-18.343c-3.125-3.123-8.189-3.123-11.314 0-3.124 3.125-3.124 8.189 0 11.314l29.657 29.657v20.686h-20.686l-29.657-29.657c-3.125-3.123-8.189-3.123-11.314 0-3.124 3.125-3.124 8.189 0 11.314l18.343 18.343h-12.686c-4.418 0-8 3.582-8 8s3.582 8 8 8h12.686l-18.344 18.343c-3.124 3.125-3.124 8.189 0 11.314 3.126 3.124 8.189 3.123 11.314 0l29.658-29.657h20.686v20.686l-29.657 29.657c-3.124 3.125-3.124 8.189 0 11.314 3.125 3.123 8.189 3.123 11.314 0l18.343-18.343v12.686c0 4.418 3.582 8 8 8s8-3.582 8-8v-12.686l18.343 18.343c3.126 3.124 8.189 3.123 11.314 0 3.124-3.125 3.124-8.189 0-11.314l-29.657-29.657v-20.686h20.685l29.657 29.657c1.563 1.562 3.609 2.343 5.657 2.343 7.064 0 10.712-8.601 5.657-13.657z" fill="#5989b3"/></svg>