<svg id="Layer_1" enable-background="new 0 0 496 496" height="512" viewBox="0 0 496 496" width="512" xmlns="http://www.w3.org/2000/svg"><path d="m127.52 351.99c-19.43 14.6-32 37.84-32 64.01 0 44.18 35.82 80 80 80s80-35.82 80-80c0-26.17-12.57-49.41-32-64.01v-303.99c0-26.51-21.49-48-48-48s-48 21.49-48 48z" fill="#c2e3ff"/><path d="m191.52 370.73v-322.73c0-8.84-7.16-16-16-16s-16 7.16-16 16v322.73c-18.64 6.59-32 24.369-32 45.27 0 26.51 21.49 48 48 48s48-21.49 48-48c0-20.9-13.36-38.68-32-45.27z" fill="#5989b3"/><path d="m399.52 176c7.337 34.576-28.654 64-64 64s-71.337-29.424-64-64c8.178-38.537 64-144 64-144s55.822 105.463 64 144z" fill="#add9ff"/><path d="m191.52 304v-256c0-8.84-7.16-16-16-16s-16 7.16-16 16v256z" fill="#99d0ff"/><g fill="#d6ecff"><path d="m191.52 176v-128c0-8.84-7.16-16-16-16s-16 7.16-16 16v128z"/><path d="m344 239.44c-38.44 5.033-80.346-26.38-72.48-63.44 8.18-38.54 64-144 64-144s3.33 6.29 8.48 16.36c-15.94 31.16-49.34 98.51-55.52 127.64-6.75 31.81 23.16 59.26 55.52 63.44z"/><circle cx="311.52" cy="200" r="8"/><circle cx="299.52" cy="188" r="4"/></g></svg>