<svg id="Layer_1" enable-background="new 0 0 512 512" height="512" viewBox="0 0 512 512" width="512" xmlns="http://www.w3.org/2000/svg"><circle cx="251.999" cy="255.999" fill="#ffdf81" r="192"/><circle cx="99.999" cy="256" fill="#5989b3" r="96"/><circle cx="60" cy="256" fill="#436786" r="24"/><circle cx="131.999" cy="216" fill="#436786" r="16"/><circle cx="131.999" cy="296" fill="#436786" r="16"/><path d="m404 256c0 83.95-68.05 152-152 152-49.77 0-93.96-23.92-121.68-60.89 38.16-12.691 65.68-48.691 65.68-91.11s-27.52-78.42-65.68-91.11c27.72-36.97 71.91-60.89 121.68-60.89 83.95 0 152 68.05 152 152z" fill="#ffcd76"/><path d="m404 256c0 90.169-78.029 160.574-168 151.17 76.43-8 136-72.62 136-151.17s-59.57-143.17-136-151.17c89.872-9.394 168 60.916 168 151.17z" fill="#ffb562"/><path d="m243.999 256c0 62.625-59.13 108.61-119.99 92.98 41.4-10.671 71.99-48.25 71.99-92.98s-30.59-82.31-71.99-92.98c60.908-15.642 119.99 30.397 119.99 92.98z" fill="#ffb562"/><g fill="#ffdf81"><path d="m252.001 80c-4.418 0-8-3.582-8-8v-64c0-4.418 3.582-8 8-8s8 3.582 8 8v64c-.001 4.418-3.583 8-8 8z"/><path d="m252.001 512c-4.418 0-8-3.582-8-8v-64c0-4.418 3.582-8 8-8s8 3.582 8 8v64c-.001 4.418-3.583 8-8 8z"/><path d="m500 264h-64c-4.418 0-8-3.582-8-8s3.582-8 8-8h64c4.418 0 8 3.582 8 8s-3.582 8-8 8z"/><path d="m123.999 136c-2.048 0-4.095-.781-5.657-2.343l-56-56c-3.124-3.125-3.124-8.189 0-11.314 3.125-3.123 8.189-3.123 11.314 0l56 56c5.056 5.056 1.407 13.657-5.657 13.657z"/><path d="m380 136c-7.065 0-10.711-8.602-5.657-13.657l56-56c3.125-3.123 8.189-3.123 11.314 0 3.124 3.125 3.124 8.189 0 11.314l-56 56c-1.563 1.562-3.61 2.343-5.657 2.343z"/><path d="m436 448c-2.048 0-4.095-.781-5.657-2.343l-56-56c-3.124-3.125-3.124-8.189 0-11.314 3.125-3.123 8.189-3.123 11.314 0l56 56c5.055 5.056 1.406 13.657-5.657 13.657z"/><path d="m67.999 448c-7.065 0-10.711-8.602-5.657-13.657l56-56c3.125-3.123 8.189-3.123 11.314 0 3.124 3.125 3.124 8.189 0 11.314l-56 56c-1.562 1.562-3.609 2.343-5.657 2.343z"/></g></svg>