<svg id="Layer_1" enable-background="new 0 0 504 504" height="512" viewBox="0 0 504 504" width="512" xmlns="http://www.w3.org/2000/svg"><path d="m328.02 68c-33.856 0-64.758 16.245-84.1 42.79-46.024-13.231-91.92 21.386-91.92 69.21-28.21 0-51.55 20.86-55.43 48h-40.57c-30.93 0-56-25.07-56-56s25.07-56 56-56c0-47.91 45.994-82.413 91.92-69.21 47.794-65.595 148.96-53.523 180.1 21.21z" fill="#5989b3"/><path d="m313.1 42.89c-46.079-37.029-114.105-28.24-149.18 19.9-46.024-13.231-91.92 21.386-91.92 69.21-45.061 0-70.916 50.225-46.779 86.78-15.202-10.01-25.221-27.22-25.221-46.78 0-30.93 25.07-56 56-56 0-47.91 45.994-82.413 91.92-69.21 40.366-55.401 122.233-57.326 165.18-3.9z" fill="#436786"/><path d="m424 292h-272c-30.93 0-56-25.07-56-56s25.07-56 56-56c0-47.91 45.994-82.413 91.92-69.21 52.411-71.932 165.158-48.807 185.34 37.4 37.31 2.69 66.74 33.819 66.74 71.81 0 39.759-32.24 72-72 72z" fill="#add9ff"/><path d="m409.1 106.89c-46.079-37.029-114.104-28.239-149.18 19.9-46.024-13.231-91.92 21.386-91.92 69.21-45.061 0-70.916 50.225-46.779 86.78-15.201-10.01-25.221-27.22-25.221-46.78 0-30.93 25.07-56 56-56 0-47.91 45.994-82.413 91.92-69.21 40.366-55.401 122.233-57.326 165.18-3.9z" fill="#d6ecff"/><circle cx="136" cy="260" fill="#d6ecff" r="8"/><circle cx="124" cy="248" fill="#d6ecff" r="4"/><circle cx="40" cy="196" fill="#436786" r="8"/><circle cx="28" cy="184" fill="#436786" r="4"/><circle cx="24" cy="476" fill="#add9ff" r="24"/><circle cx="312" cy="476" fill="#add9ff" r="24"/><circle cx="120" cy="476" fill="#add9ff" r="24"/><circle cx="408" cy="476" fill="#add9ff" r="24"/><circle cx="216" cy="476" fill="#add9ff" r="24"/><g fill="#5989b3"><path d="m47.996 428c-6.691 0-10.514-7.875-6.142-13.122l80-96c2.828-3.395 7.874-3.852 11.267-1.024 3.395 2.829 3.854 7.873 1.024 11.268l-80 96c-1.582 1.898-3.857 2.878-6.149 2.878z"/><path d="m415.996 428c-6.691 0-10.514-7.875-6.142-13.122l80-96c2.828-3.395 7.874-3.852 11.267-1.024 3.395 2.829 3.854 7.873 1.024 11.268l-80 96c-1.581 1.898-3.857 2.878-6.149 2.878z"/><path d="m135.996 428c-6.691 0-10.514-7.875-6.142-13.122l80-96c2.829-3.395 7.874-3.852 11.267-1.024 3.395 2.829 3.854 7.873 1.024 11.268l-80 96c-1.581 1.898-3.857 2.878-6.149 2.878z"/><path d="m327.996 428c-6.691 0-10.514-7.875-6.142-13.122l80-96c2.829-3.395 7.874-3.852 11.267-1.024 3.395 2.829 3.854 7.873 1.024 11.268l-80 96c-1.581 1.898-3.857 2.878-6.149 2.878z"/><path d="m231.996 428c-6.691 0-10.514-7.875-6.142-13.122l80-96c2.828-3.395 7.874-3.852 11.267-1.024 3.395 2.829 3.854 7.873 1.024 11.268l-80 96c-1.581 1.898-3.857 2.878-6.149 2.878z"/></g></svg>