<svg id="Layer_1" enable-background="new 0 0 496 496" height="512" viewBox="0 0 496 496" width="512" xmlns="http://www.w3.org/2000/svg"><path d="m368 479.998v-463.998c0-8.836-7.163-16-16-16h-208c-8.837 0-16 7.164-16 16v464c0 8.836 7.163 16 16 16h208c8.837 0 16-7.164 16-16.002z" fill="#d6ecff"/><circle cx="248" cy="112" fill="#ffdf81" r="32"/><path d="m128 448v32c0 8.836 7.163 16 16 16h208c8.837 0 16-7.164 16-16v-32z" fill="#5989b3"/><path d="m368 48v-32c0-8.836-7.163-16-16-16h-208c-8.837 0-16 7.164-16 16v32z" fill="#5989b3"/><path d="m184 216c-13.255 0-24 10.745-24 24s10.745 24 24 24h128c13.255 0 24-10.745 24-24s-10.745-24-24-24c0-22.092-17.908-40-40-40s-40 17.908-40 40c0-13.255-10.745-24-24-24s-24 10.745-24 24z" fill="#5989b3"/><path d="m288 456h-80c-4.418 0-8-3.582-8-8s3.582-8 8-8h80c4.418 0 8 3.582 8 8s-3.582 8-8 8z" fill="#436786"/><g fill="#5989b3"><path d="m223.992 344.002c-6.149 0-10.067-6.758-6.853-12.118l24-40c2.272-3.789 7.186-5.017 10.977-2.744 3.788 2.273 5.017 7.188 2.744 10.977l-24 40c-1.5 2.499-4.15 3.885-6.868 3.885z"/><path d="m175.992 376.002c-6.149 0-10.067-6.758-6.853-12.118l24-40c2.272-3.789 7.185-5.018 10.977-2.744 3.788 2.273 5.017 7.188 2.744 10.977l-24 40c-1.5 2.499-4.15 3.885-6.868 3.885z"/><path d="m239.992 376.002c-6.149 0-10.067-6.758-6.853-12.118l24-40c2.273-3.789 7.186-5.018 10.977-2.744 3.788 2.273 5.017 7.188 2.744 10.977l-24 40c-1.5 2.499-4.15 3.885-6.868 3.885z"/><path d="m159.992 344.002c-6.149 0-10.067-6.758-6.853-12.118l24-40c2.272-3.789 7.185-5.017 10.977-2.744 3.788 2.273 5.017 7.188 2.744 10.977l-24 40c-1.5 2.499-4.15 3.885-6.868 3.885z"/><path d="m287.992 344.002c-6.149 0-10.067-6.758-6.853-12.118l24-40c2.272-3.789 7.185-5.017 10.977-2.744 3.788 2.273 5.017 7.188 2.744 10.977l-24 40c-1.5 2.499-4.15 3.885-6.868 3.885z"/><path d="m303.992 376.002c-6.149 0-10.067-6.758-6.853-12.118l24-40c2.273-3.789 7.186-5.018 10.977-2.744 3.788 2.273 5.017 7.188 2.744 10.977l-24 40c-1.5 2.499-4.15 3.885-6.868 3.885z"/></g></svg>