<svg id="Layer_1" enable-background="new 0 0 496 496" height="512" viewBox="0 0 496 496" width="512" xmlns="http://www.w3.org/2000/svg"><path d="m368 479.998v-463.998c0-8.836-7.163-16-16-16h-208c-8.837 0-16 7.164-16 16v464c0 8.836 7.163 16 16 16h208c8.837 0 16-7.164 16-16.002z" fill="#d6ecff"/><circle cx="248" cy="272" fill="#ffb562" r="88"/><path d="m128 448v32c0 8.836 7.163 16 16 16h208c8.837 0 16-7.164 16-16v-32z" fill="#5989b3"/><circle cx="248" cy="112" fill="#ffdf81" r="32"/><path d="m368 48v-32c0-8.836-7.163-16-16-16h-208c-8.837 0-16 7.164-16 16v32z" fill="#5989b3"/><path d="m288 456h-80c-4.419 0-8-3.582-8-8s3.581-8 8-8h80c4.418 0 8 3.582 8 8s-3.582 8-8 8z" fill="#436786"/><path d="m336 264c-34.661 0-31.962-.015-32.574.029-1.355-9.508-5.089-18.247-10.593-25.588.486-.423 9.92-9.88 32.824-32.784 3.125-3.125 3.125-8.19 0-11.314-3.124-3.123-8.189-3.123-11.313 0-22.559 22.559-32.368 32.346-32.784 32.825-7.341-5.504-16.082-9.238-25.588-10.594.044-.647.028 2.499.028-40.574 0-4.418-3.582-8-8-8-4.419 0-8 3.582-8 8 0 43.173-.016 39.929.029 40.574-9.507 1.355-18.247 5.09-25.588 10.594-.416-.48-10.225-10.266-32.784-32.825-3.124-3.122-8.189-3.122-11.313 0-3.124 3.124-3.124 8.189 0 11.314 22.904 22.905 32.338 32.361 32.824 32.784-5.504 7.341-9.238 16.08-10.593 25.588-.615-.044 2.007-.029-32.575-.029-4.419 0-8 3.582-8 8s3.581 8 8 8c34.661 0 31.962.015 32.574-.029 1.355 9.508 5.089 18.247 10.593 25.588-.486.423-9.92 9.88-32.824 32.784-3.124 3.125-3.124 8.19 0 11.314 3.125 3.124 8.189 3.123 11.313 0 22.558-22.559 32.368-32.346 32.784-32.825 7.341 5.504 16.082 9.238 25.588 10.594-.041.61-.028-2.613-.028 40.574 0 4.418 3.581 8 8 8 4.418 0 8-3.582 8-8 0-43.17.016-39.928-.029-40.574 9.507-1.355 18.247-5.09 25.588-10.594.416.48 10.225 10.266 32.784 32.825 3.125 3.124 8.189 3.123 11.313 0 3.125-3.124 3.125-8.189 0-11.314-22.904-22.905-32.338-32.361-32.824-32.784 5.504-7.341 9.238-16.08 10.593-25.588.615.044-2.007.029 32.575.029 4.418 0 8-3.582 8-8s-3.582-8-8-8z" fill="#fdd28c"/></svg>