<svg id="Layer_1" enable-background="new 0 0 496 496" height="512" viewBox="0 0 496 496" width="512" xmlns="http://www.w3.org/2000/svg"><path d="m368 479.998v-463.998c0-8.836-7.163-16-16-16h-208c-8.837 0-16 7.164-16 16v464c0 8.836 7.163 16 16 16h208c8.837 0 16-7.164 16-16.002z" fill="#d6ecff"/><circle cx="248" cy="112" fill="#ffdf81" r="32"/><path d="m128 448v32c0 8.836 7.163 16 16 16h208c8.837 0 16-7.164 16-16v-32z" fill="#5989b3"/><path d="m368 48v-32c0-8.836-7.163-16-16-16h-208c-8.837 0-16 7.164-16 16v32z" fill="#5989b3"/><path d="m336 248c0 13.255-10.745 24-24 24h-128c-13.255 0-24-10.745-24-24v-8c0-13.255 10.745-24 24-24 0-13.255 10.745-24 24-24s24 10.745 24 24c0-22.092 17.908-40 40-40s40 17.908 40 40c13.255 0 24 10.745 24 24z" fill="#99d0ff"/><path d="m288 456h-80c-4.419 0-8-3.582-8-8s3.581-8 8-8h80c4.418 0 8 3.582 8 8s-3.582 8-8 8z" fill="#436786"/><g fill="#5989b3"><path d="m304 344h-128c-4.419 0-8-3.582-8-8s3.581-8 8-8h128c4.411 0 8-3.589 8-8s-3.589-8-8-8c-4.418 0-8-3.582-8-8 0-15.304 32-7.786 32 16 0 13.233-10.766 24-24 24z"/><path d="m272 312h-32c-4.419 0-8-3.582-8-8s3.581-8 8-8h32c4.418 0 8 3.582 8 8s-3.582 8-8 8z"/><path d="m288 376h-80c-4.419 0-8-3.582-8-8s3.581-8 8-8h80c4.418 0 8 3.582 8 8s-3.582 8-8 8z"/><circle cx="176" cy="368" r="8"/></g></svg>