<svg id="Layer_1" enable-background="new 0 0 512 512" height="512" viewBox="0 0 512 512" width="512" xmlns="http://www.w3.org/2000/svg"><path d="m472 228.003c17.673 0 32-30.445 32-68s-14.327-68-32-68l-248-16s-32 16-32 80 32 88 32 88z" fill="#ffdf81"/><ellipse cx="472" cy="160.003" fill="#ff6e29" rx="32" ry="68"/><path d="m374.809 234.273-75.89 4.9c-36.397-39.585-35.312-127.728-1.35-158.42l75.279 4.85c-27.892 32.334-28.734 108.845 1.961 148.67z" fill="#ff6e29"/><path d="m472.284 84.005c-265.763-17.146-248.18-16.193-249.994-15.808-1.555.344 6.992-3.778-129.868 64.651-7.513 3.756-4.843 15.157 3.584 15.157 2.704 0-5.166 3.522 98.703-48.412-14.624 32.004-15.079 85.369 3.155 122.398l-98.286-49.144c-3.952-1.976-8.757-.374-10.733 3.577-1.976 3.953-.374 8.758 3.578 10.733 135.604 67.802 129.381 65.121 131.619 64.843.384 0-11.268.743 248.243-16 22.663-.27 39.716-32.85 39.716-75.998s-17.054-75.727-39.717-75.997zm-.284 135.998c-.4 0 11.666-.769-245.229 15.805-36.1-34.565-35.309-127.532-.749-151.657 257.09 16.586 245.577 15.853 245.978 15.853 10.021 0 24 22.826 24 60s-13.979 59.999-24 59.999z" fill="#ffcd76"/><g fill="#5989b3"><path d="m183.999 508.003h-175.999c-4.418 0-8-3.582-8-8s3.582-8 8-8h175.999c4.419 0 8 3.582 8 8s-3.581 8-8 8z"/><path d="m95.999 364.003c-4.418 0-8-3.582-8-8v-272c0-4.418 3.582-8 8-8 4.419 0 8 3.582 8 8v272c0 4.418-3.581 8-8 8z"/><path d="m56 396.003c0-22.092 17.909-40 40-40s40 17.908 40 40v104h-80z"/><circle cx="95.999" cy="44.003" r="40"/></g><path d="m103.999 356.803c-18.26 3.71-32 19.851-32 39.2v104h-15.999v-104c0-25.098 22.933-44.228 47.999-39.2z" fill="#99d0ff"/><path d="m103.999 83.203c-25.105 5.036-48-14.147-48-39.2 0-25.098 22.934-44.228 48-39.2-18.26 3.71-32 19.851-32 39.2s13.741 35.49 32 39.2z" fill="#99d0ff"/></svg>