<svg id="Layer_1" enable-background="new 0 0 496 496" height="512" viewBox="0 0 496 496" width="512" xmlns="http://www.w3.org/2000/svg"><path d="m376 176h-144l112-176-224 240h112l-80 80h96l-112 176 224-224h-80z" fill="#ffdf81"/><path d="m328 272h32l-224 224 56-88z" fill="#ffcd76"/><path d="m152 240h-32l224-240-68.57 107.76z" fill="#f9ecb4"/><g fill="#ffdf81"><path d="m192.001 488c-7.188 0-10.735-8.826-5.519-13.793l168-160c3.2-3.046 8.264-2.923 11.31.275 3.047 3.2 2.924 8.264-.276 11.311l-168 160c-1.547 1.475-3.533 2.207-5.515 2.207z"/><path d="m135.998 184c-6.966 0-10.648-8.405-5.798-13.51l152-160c3.042-3.203 8.106-3.334 11.31-.29 3.204 3.043 3.333 8.106.29 11.31l-152 160c-1.573 1.656-3.685 2.49-5.802 2.49z"/></g></svg>