<svg id="Layer_1" enable-background="new 0 0 496 496" height="512" viewBox="0 0 496 496" width="512" xmlns="http://www.w3.org/2000/svg"><path d="m368.25 397.28c-5.93-1.391-11.67-3.3-17.17-5.66 27.36-24.98 42.82-59.16 32.92-95.62-6.21-22.88-24.96-58.47-46.62-94.96l10.67-20.53c22.92 39.41 54.75 96.32 59.95 115.49 8.751 32.226-.64 68.869-39.75 101.28z" fill="#5989b3"/><path d="m496 296c0 75.116-77.051 124.797-144.92 95.62 27.36-24.98 42.82-59.16 32.92-95.62-6.21-22.88-24.96-58.47-46.62-94.96l54.62-105.04z" fill="#99d0ff"/><path d="m368.25 397.28c-5.93-1.391-11.67-3.3-17.17-5.66 27.36-24.98 42.82-59.16 32.92-95.62-6.21-22.88-24.96-58.47-46.62-94.96l10.67-20.53c22.92 39.41 54.75 96.32 59.95 115.49 8.751 32.226-.64 68.869-39.75 101.28z" fill="#5989b3"/><path d="m144.92 391.62c-67.914 29.196-144.92-20.56-144.92-95.62l104-200 54.62 105.04c-21.66 36.49-40.41 72.08-46.62 94.96-9.9 36.46 5.56 70.64 32.92 95.62z" fill="#add9ff"/><path d="m129.13 397.28c5.93-1.391 11.67-3.3 17.17-5.66-27.36-24.98-42.82-59.16-32.92-95.62 6.21-22.88 24.96-58.47 46.62-94.96l-10.67-20.53c-22.92 39.41-54.75 96.32-59.95 115.49-8.751 32.226.64 68.869 39.75 101.28z" fill="#99d0ff"/><path d="m384 296c-17.615-64.882-136-232-136-232s-118.385 167.118-136 232c-19.68 72.487 60.889 136 136 136 75.11 0 155.68-63.513 136-136z" fill="#c2e3ff"/><path d="m258.5 431.59c-78.855 6.079-166.972-60.185-146.5-135.59 17.62-64.88 136-232 136-232s3.94 5.57 10.5 15.06c-29.36 42.53-111.11 163.9-125.51 216.94-18.77 69.12 53.62 130.08 125.51 135.59z" fill="#d6ecff"/><g fill="#99d0ff"><path d="m328.008 264.002c-2.753 0-5.431-1.422-6.918-3.971l-56-96c-2.227-3.816-.938-8.715 2.879-10.941 3.818-2.225 8.715-.936 10.941 2.879l56 96c3.126 5.357-.792 12.033-6.902 12.033z"/><path d="m344 296c-4.417 0-8-3.577-8-8 0-4.418 3.577-8 8-8 4.418 0 8 3.578 8 8 0 4.408-3.57 8-8 8z"/></g></svg>