<svg id="Layer_1" enable-background="new 0 0 496 496" height="512" viewBox="0 0 496 496" width="512" xmlns="http://www.w3.org/2000/svg"><path d="m412.95 308h-329.9c-20.063-103.927 59.6-200 164.95-200 105.432 0 184.998 96.146 164.95 200z" fill="#ffb562"/><path d="m0 308h496v96h-496z" fill="#add9ff"/><path d="m432 308h-368c-8.837 0-16 7.164-16 16s7.163 16 16 16h32c-8.837 0-16 7.164-16 16s7.163 16 16 16h32c-8.837 0-16 7.164-16 16s7.163 16 16 16h240c8.837 0 16-7.164 16-16s-7.163-16-16-16h32c8.837 0 16-7.164 16-16s-7.163-16-16-16h32c8.837 0 16-7.164 16-16s-7.163-16-16-16z" fill="#5989b3"/><path d="m388.43 308h-280.86c-20.487-90.101 48.047-176 140.43-176 92.334 0 160.93 85.842 140.43 176z" fill="#ffcd76"/><path d="m432 268c-65.937 0-71.537-.008-72.286.015-1.756-24.923-11.667-47.59-27.077-65.358.491-.458 7.267-7.245 49.021-48.999 3.124-3.125 3.124-8.189 0-11.314-3.125-3.123-8.189-3.123-11.314 0l-48.8 48.8c-.949.935-22.985-23.856-65.558-26.855.022-.565.014-14.733.014-64.289 0-4.418-3.582-8-8-8s-8 3.582-8 8c0 49.556-.008 63.724.015 64.287-24.92 1.756-47.592 11.659-65.362 27.07-.389-.419-13.433-13.452-48.995-49.015-3.125-3.123-8.189-3.123-11.314 0-3.124 3.125-3.124 8.189 0 11.314l48.81 48.81c.898.897-23.872 23.062-26.865 65.548-.759-.022-5.674-.014-72.289-.014-4.418 0-8 3.582-8 8s3.582 8 8 8c65.937 0 71.536.008 72.285-.015.584 8.286 2.066 16.323 4.365 24.015h214.7c2.299-7.691 3.781-15.728 4.365-24.015.749.023 6.348.015 72.285.015 4.418 0 8-3.582 8-8s-3.582-8-8-8z" fill="#ffdf81"/></svg>