<svg id="Layer_1" enable-background="new 0 0 496 496" height="512" viewBox="0 0 496 496" width="512" xmlns="http://www.w3.org/2000/svg"><path d="m170.55 127.77c-11.53 12.77-18.55 29.68-18.55 48.23-32.644 0-58.973 27.981-55.72 61.65-54.91-11-96.28-59.5-96.28-117.65 0-66.27 53.73-120 120-120h32c-23.71 9.37-40 36.95-40 64 0 33.52 25.75 61.01 58.55 63.77z" fill="#ffdf81"/><path d="m170.55 127.77c-11.53 12.77-18.55 29.68-18.55 48.23-32.644 0-58.973 27.981-55.72 61.65-8.45-1.69-16.58-4.27-24.28-7.65v-11.65c0-30.93 25.07-56 56-56 0-16.41 5.49-31.54 14.75-43.65 8.22 5.01 17.68 8.22 27.8 9.07z" fill="#ffcd76"/><path d="m152 0c-8.47 3.34-16 9.01-22.17 16.16-99.005 4.997-148.56 121.137-86.3 196.32-26.59-22.01-43.53-55.27-43.53-92.48 0-66.27 53.73-120 120-120z" fill="#f9ecb4"/><path d="m424 288h-272c-30.93 0-56-25.07-56-56s25.07-56 56-56c0-47.91 45.994-82.413 91.92-69.21 52.411-71.932 165.158-48.807 185.34 37.4 37.31 2.69 66.74 33.82 66.74 71.81 0 39.76-32.24 72-72 72z" fill="#5989b3"/><path d="m409.1 102.89c-46.084-37.033-114.11-28.233-149.18 19.9-46.024-13.231-91.92 21.386-91.92 69.21-45.061 0-70.917 50.224-46.78 86.78-15.2-10.01-25.22-27.22-25.22-46.78 0-30.93 25.07-56 56-56 0-47.91 45.994-82.413 91.92-69.21 40.365-55.401 122.233-57.324 165.18-3.9z" fill="#436786"/><path d="m288 240-112 144h64l-48 112 128-144h-64z" fill="#ffdf81"/><g fill="#5989b3"><path d="m63.996 424c-6.697 0-10.51-7.879-6.142-13.122l80-96c2.829-3.395 7.872-3.853 11.268-1.024 3.394 2.829 3.852 7.873 1.024 11.268l-80 96c-1.583 1.898-3.858 2.878-6.15 2.878z"/><path d="m351.996 424c-6.697 0-10.51-7.879-6.142-13.122l80-96c2.829-3.395 7.872-3.853 11.268-1.024 3.394 2.829 3.853 7.873 1.024 11.268l-80 96c-1.583 1.898-3.858 2.878-6.15 2.878z"/><path d="m63.996 488c-6.697 0-10.51-7.879-6.142-13.122l80-96c2.829-3.395 7.872-3.852 11.268-1.024 3.394 2.829 3.852 7.873 1.024 11.268l-80 96c-1.583 1.898-3.858 2.878-6.15 2.878z"/><path d="m351.996 488c-6.697 0-10.51-7.879-6.142-13.122l80-96c2.829-3.395 7.872-3.852 11.268-1.024 3.394 2.829 3.853 7.873 1.024 11.268l-80 96c-1.583 1.898-3.858 2.878-6.15 2.878z"/></g><circle cx="56" cy="192" fill="#ffcd76" r="8"/><circle cx="44" cy="180" fill="#ffcd76" r="4"/><circle cx="136" cy="256" fill="#436786" r="8"/><circle cx="124" cy="244" fill="#436786" r="4"/></svg>