<svg width="407" height="377" viewBox="0 0 407 377" fill="none" xmlns="http://www.w3.org/2000/svg">
<path d="M171 317.016C171 334.97 185.554 349.524 203.508 349.524C221.461 349.524 236.016 334.97 236.016 317.016L203.508 252L171 317.016Z" fill="#ADD9FF"/>
<path d="M56 344.016C56 361.97 70.5544 376.524 88.5082 376.524C106.461 376.524 121.016 361.97 121.016 344.016L88.5082 279L56 344.016Z" fill="#ADD9FF"/>
<path d="M286 344.016C286 361.97 300.555 376.524 318.508 376.524C336.462 376.524 351.016 361.97 351.016 344.016L318.508 279L286 344.016Z" fill="#ADD9FF"/>
<path d="M333.857 227.698H57.5397C26.1187 227.698 0.650787 202.23 0.650787 170.809C0.650787 139.389 26.1187 113.921 57.5397 113.921C57.5397 65.2501 104.264 30.1994 150.919 43.612C204.162 -29.4618 318.698 -5.96969 339.201 81.6057C377.103 84.3384 407 115.962 407 154.556C407 194.947 374.248 227.698 333.857 227.698Z" fill="#ADD9FF"/>
<path d="M318.721 39.6501C271.905 2.02933 202.799 10.969 167.173 59.866C120.418 46.425 73.7936 81.5915 73.7936 130.175C28.0174 130.175 1.75098 181.196 26.2711 218.332C10.8298 208.163 0.650787 190.68 0.650787 170.81C0.650787 139.389 26.1187 113.921 57.5397 113.921C57.5397 65.2502 104.264 30.1995 150.919 43.6121C191.924 -12.6683 275.092 -14.6219 318.721 39.6501Z" fill="#D6ECFF"/>
<path d="M41.2857 203.317C45.7741 203.317 49.4127 199.679 49.4127 195.19C49.4127 190.702 45.7741 187.063 41.2857 187.063C36.7973 187.063 33.1587 190.702 33.1587 195.19C33.1587 199.679 36.7973 203.317 41.2857 203.317Z" fill="#D6ECFF"/>
</svg>
