<svg width="414" height="446" viewBox="0 0 414 446" fill="none" xmlns="http://www.w3.org/2000/svg">
<path d="M174.323 329.998C174.323 348.243 189.112 363.031 207.355 363.031C225.598 363.031 240.387 348.243 240.387 329.998L207.355 263.934L174.323 329.998Z" fill="#ADD9FF"/>
<path d="M338.581 231.224H57.8064C25.8787 231.224 0 205.346 0 173.418C0 141.49 25.8787 115.611 57.8064 115.611C57.8064 66.156 105.284 30.54 152.692 44.1689C206.793 -30.0835 323.177 -6.21256 344.01 82.7753C382.524 85.5521 412.903 117.686 412.903 156.902C412.903 197.944 379.623 231.224 338.581 231.224Z" fill="#5989B3"/>
<path d="M323.2 40.143C275.629 1.91544 205.409 10.9993 169.208 60.685C121.699 47.0272 74.3226 82.7609 74.3226 132.128C27.808 132.128 1.11794 183.972 26.0335 221.707C10.3432 211.374 0 193.609 0 173.418C0 141.49 25.8787 115.611 57.8064 115.611C57.8064 66.156 105.284 30.54 152.692 44.1689C194.359 -13.0193 278.868 -15.0043 323.2 40.143V40.143Z" fill="#436786"/>
<path d="M0.903229 329.998C0.903229 348.243 15.6924 363.031 33.9355 363.031C52.1786 363.031 66.9677 348.243 66.9677 329.998L33.9355 263.934L0.903229 329.998Z" fill="#ADD9FF"/>
<path d="M83.4839 412.579C83.4839 430.823 98.273 445.611 116.516 445.611C134.759 445.611 149.548 430.823 149.548 412.579L116.516 346.515L83.4839 412.579Z" fill="#ADD9FF"/>
<path d="M347.742 329.998C347.742 348.243 362.531 363.031 380.774 363.031C399.017 363.031 413.806 348.243 413.806 329.998L380.774 263.934L347.742 329.998Z" fill="#ADD9FF"/>
<path d="M273.419 412.579C273.419 430.823 288.209 445.611 306.452 445.611C324.695 445.611 339.484 430.823 339.484 412.579L306.452 346.515L273.419 412.579Z" fill="#ADD9FF"/>
<path d="M41.2903 206.45C45.8511 206.45 49.5484 202.753 49.5484 198.192C49.5484 193.631 45.8511 189.934 41.2903 189.934C36.7295 189.934 33.0323 193.631 33.0323 198.192C33.0323 202.753 36.7295 206.45 41.2903 206.45Z" fill="#436786"/>
<path d="M28.9032 189.934C31.1836 189.934 33.0323 188.085 33.0323 185.805C33.0323 183.525 31.1836 181.676 28.9032 181.676C26.6228 181.676 24.7742 183.525 24.7742 185.805C24.7742 188.085 26.6228 189.934 28.9032 189.934Z" fill="#436786"/>
</svg>
