<svg id="Layer_1" enable-background="new 0 0 496 496" height="512" viewBox="0 0 496 496" width="512" xmlns="http://www.w3.org/2000/svg"><path d="m496 248v8h-32v-8c0-66.27-53.73-120-120-120-39.75 0-74.98 19.33-96.82 49.1 0 .339-16.337-3.568-38.46 1.52 25.21-49.06 76.32-82.62 135.28-82.62 83.95 0 152 68.05 152 152z" fill="#f34a20"/><path d="m464 248v8h-32v-8c0-48.6-39.4-88-88-88-25.26 0-48.03 10.64-64.07 27.69-10.07-5.25-21.09-8.89-32.75-10.58 0-1.467 34.203-49.11 96.82-49.11 66.27 0 120 53.73 120 120z" fill="#fdd28c"/><path d="m432 248v8h-32v-8c0-48.879-58.472-74.025-94.03-41.1-7.6-7.68-16.37-14.19-26.04-19.21 16.04-17.05 38.81-27.69 64.07-27.69 48.6 0 88 39.4 88 88z" fill="#afda99"/><path d="m328 400h-272c-30.93 0-56-25.07-56-56s25.07-56 56-56c0-47.91 45.994-82.413 91.92-69.21 52.411-71.932 165.158-48.807 185.34 37.4 37.31 2.69 66.74 33.82 66.74 71.81 0 39.76-32.24 72-72 72z" fill="#add9ff"/><g fill="#d6ecff"><path d="m313.1 214.89c-46.079-37.029-114.104-28.239-149.18 19.9-46.024-13.231-91.92 21.386-91.92 69.21-45.061 0-70.917 50.224-46.78 86.78-15.2-10.01-25.22-27.22-25.22-46.78 0-30.93 25.07-56 56-56 0-47.91 45.994-82.413 91.92-69.21 40.366-55.401 122.233-57.325 165.18-3.9z"/><circle cx="40" cy="368" r="8"/><circle cx="28" cy="356" r="4"/></g></svg>