<svg xmlns="http://www.w3.org/2000/svg" width="512" height="512" viewBox="0 0 128 128"><path d="M64 15a49 49 0 1049 49 49.056 49.056 0 00-49-49zm18.414 90.59a19.425 19.425 0 00-36.825 0 45.432 45.432 0 01-6.757-3.712 21.692 21.692 0 003.357-11.6 21.94 21.94 0 00-21.914-21.917h-1.561A45.594 45.594 0 0118.5 64a45.7 45.7 0 01.409-6.012h90.181A45.525 45.525 0 01109.5 64c0 1.473-.077 2.927-.214 4.364h-1.561A21.94 21.94 0 0085.81 90.276a21.7 21.7 0 003.357 11.6 45.475 45.475 0 01-6.753 3.714zM64 18.5a45.573 45.573 0 0144.492 35.988H19.508A45.573 45.573 0 0164 18.5zM19.194 71.861h1.081a18.435 18.435 0 0118.414 18.415A18.219 18.219 0 0136 99.822a45.526 45.526 0 01-16.806-27.961zm29.648 35.03a15.923 15.923 0 0130.31 0 45.386 45.386 0 01-30.31 0zM92 99.822a18.22 18.22 0 01-2.69-9.546 18.436 18.436 0 0118.415-18.415h1.081A45.526 45.526 0 0192 99.822z"/><path d="M64 0a64 64 0 1064 64A64.073 64.073 0 0064 0zm0 124.5A60.5 60.5 0 11124.5 64 60.569 60.569 0 0164 124.5z"/><path d="M70.5 65.375h-13a8.25 8.25 0 000 16.5h13a8.25 8.25 0 000-16.5zm0 13h-13a4.75 4.75 0 010-9.5h13a4.75 4.75 0 010 9.5z"/></svg>