<svg width="310" height="310" viewBox="0 0 310 310" fill="none" xmlns="http://www.w3.org/2000/svg">
<g clip-path="url(#clip0)">
<path d="M155 0C113.891 0 74.4666 16.3303 45.3985 45.3985C16.3303 74.4666 0 113.891 0 155C0 196.109 16.3303 235.533 45.3985 264.602C74.4666 293.67 113.891 310 155 310C196.109 310 235.533 293.67 264.602 264.602C293.67 235.533 310 196.109 310 155C310 113.891 293.67 74.4666 264.602 45.3985C235.533 16.3303 196.109 0 155 0V0ZM155 88.8552C172.543 88.8552 189.367 95.824 201.771 108.229C214.176 120.633 221.145 137.457 221.145 155C221.145 172.543 214.176 189.367 201.771 201.771C189.367 214.176 172.543 221.145 155 221.145C137.457 221.145 120.633 214.176 108.229 201.771C95.824 189.367 88.8552 172.543 88.8552 155C88.8552 137.457 95.824 120.633 108.229 108.229C120.633 95.824 137.457 88.8552 155 88.8552V88.8552Z" fill="#333333"/>
<path d="M230.129 50.0635L224.027 59.8296C239.074 70.7263 251.327 85.0304 259.784 101.572C268.242 118.113 272.663 136.422 272.686 155C272.66 178.113 265.828 200.706 253.044 219.962L262.138 227.067C276.481 205.77 284.15 180.68 284.167 155.004C284.146 134.477 279.233 114.252 269.835 96.0028C260.437 77.754 246.826 62.0076 230.129 50.0686V50.0635ZM79.8594 50.1364C63.1736 62.0697 49.5701 77.8056 40.1748 96.0414C30.7795 114.277 25.8628 134.489 25.8315 155.003C25.8716 180.737 33.5979 205.873 48.0195 227.187L57.7684 221.107C44.4794 201.62 37.3526 178.589 37.3125 155.003C37.3409 136.435 41.7622 118.138 50.215 101.607C58.6677 85.0752 70.9121 70.7782 85.9474 59.8842L79.8594 50.1364Z" fill="#E4D536"/>
<path d="M155 68.8892C132.162 68.8892 110.259 77.9616 94.1105 94.1105C77.9616 110.259 68.8892 132.162 68.8892 155C68.8892 177.838 77.9616 199.741 94.1105 215.89C110.259 232.039 132.162 241.111 155 241.111C166.309 241.111 177.506 238.884 187.954 234.557C198.401 230.229 207.894 223.886 215.89 215.89C223.886 207.894 230.229 198.401 234.557 187.954C238.884 177.506 241.111 166.309 241.111 155C241.111 143.692 238.884 132.494 234.557 122.047C230.229 111.599 223.886 102.107 215.89 94.1105C207.894 86.1144 198.401 79.7715 187.954 75.444C177.506 71.1165 166.309 68.8892 155 68.8892V68.8892ZM155 88.8537C172.543 88.8537 189.367 95.8225 201.772 108.227C214.176 120.632 221.145 137.456 221.145 154.999C221.145 163.685 219.434 172.286 216.11 180.311C212.786 188.336 207.914 195.628 201.772 201.77C195.63 207.912 188.338 212.784 180.313 216.108C172.288 219.432 163.687 221.143 155 221.143C137.458 221.143 120.633 214.175 108.229 201.77C95.8243 189.365 88.8555 172.541 88.8555 154.999C88.8555 137.456 95.8243 120.632 108.229 108.227C120.633 95.8225 137.458 88.8537 155 88.8537V88.8537Z" fill="#A8A8A8"/>
<path d="M155 83.2407C135.968 83.2407 117.716 90.8011 104.259 104.259C90.801 117.716 83.2407 135.968 83.2407 155C83.2407 174.032 90.801 192.284 104.259 205.741C117.716 219.199 135.968 226.759 155 226.759C174.032 226.759 192.284 219.199 205.741 205.741C219.199 192.284 226.759 174.032 226.759 155C226.759 135.968 219.199 117.716 205.741 104.259C192.284 90.8011 174.032 83.2407 155 83.2407ZM149.833 93.539V129.717C147.935 130.107 146.086 130.709 144.322 131.512L123.07 102.26C131.2 97.3306 140.36 94.346 149.833 93.5396V93.539ZM160.167 93.5459C169.637 94.3555 178.793 97.3417 186.92 102.272L165.68 131.505C163.916 130.695 162.067 130.086 160.167 129.69V93.5454V93.5459ZM195.305 108.311C202.496 114.533 208.152 122.332 211.831 131.101L177.444 142.274C176.489 140.586 175.347 139.011 174.04 137.579L195.305 108.311V108.311ZM114.717 108.346L135.96 137.585C134.647 139.013 133.499 140.585 132.538 142.27L98.1144 131.085C101.823 122.328 107.504 114.546 114.717 108.347V108.346ZM154.998 137.778C159.566 137.778 163.946 139.592 167.176 142.822C170.406 146.052 172.22 150.432 172.22 155C172.22 159.568 170.406 163.948 167.176 167.178C163.946 170.408 159.566 172.222 154.998 172.222C150.431 172.222 146.05 170.408 142.82 167.178C139.591 163.948 137.776 159.568 137.776 155C137.776 150.432 139.591 146.052 142.82 142.822C146.05 139.592 150.431 137.778 154.998 137.778V137.778ZM94.9788 140.931L129.345 152.097C129.231 153.06 129.171 154.03 129.167 155C129.177 155.969 129.242 156.936 129.362 157.897L94.9874 169.066C93.8825 164.458 93.3119 159.738 93.287 155C93.309 150.261 93.8769 145.54 94.9794 140.931H94.9788ZM215.012 140.933C216.117 145.541 216.688 150.261 216.713 155C216.691 159.74 216.124 164.461 215.021 169.071L180.655 157.905C180.769 156.941 180.829 155.971 180.833 155C180.823 154.031 180.757 153.064 180.638 152.102L215.012 140.933V140.933ZM132.558 167.725C133.512 169.411 134.653 170.985 135.96 172.416L114.694 201.686C107.505 195.464 101.85 187.665 98.1718 178.898L132.558 167.725V167.725ZM177.462 167.731L211.887 178.916C208.179 187.673 202.497 195.454 195.286 201.653L174.041 172.415C175.354 170.986 176.502 169.415 177.462 167.73V167.731ZM165.682 178.488L186.935 207.74C178.804 212.67 169.644 215.654 160.17 216.46V180.282C162.068 179.893 163.918 179.29 165.682 178.487V178.488ZM144.318 178.492C146.083 179.304 147.934 179.913 149.836 180.31V216.453C140.364 215.644 131.207 212.657 123.079 207.725L144.318 178.492V178.492Z" fill="#7F7F7F"/>
<path d="M94.8944 250.136C95.5446 250.543 96.1052 251.078 96.542 251.709C96.8726 252.202 97.0812 252.766 97.1505 253.356C97.2014 253.91 97.1309 254.468 96.9438 254.992C96.7522 255.527 96.4958 256.036 96.1803 256.508L96.1114 256.617L86.111 264.568C85.4481 264.88 84.7477 265.106 84.0271 265.239C83.2407 265.394 82.4404 265.467 81.639 265.458C80.8256 265.448 80.0163 265.342 79.2279 265.142C78.469 264.956 77.7482 264.639 77.0981 264.206L68.0966 258.184C67.5552 257.834 67.103 257.362 66.7762 256.806C66.4588 256.277 66.2428 255.693 66.139 255.084C66.0298 254.498 66.0298 253.897 66.139 253.31C66.2483 252.741 66.4688 252.199 66.7877 251.714L76.834 243.712C77.5219 243.412 78.2454 243.202 78.9868 243.086C79.7925 242.949 80.6095 242.889 81.4266 242.908C82.2373 242.923 83.0439 243.027 83.832 243.218C84.5477 243.38 85.2284 243.67 85.8412 244.073L94.8944 250.136ZM91.6451 255.165C91.8567 255.036 92.0324 254.856 92.156 254.642C92.3103 254.424 92.4052 254.17 92.4313 253.904C92.4575 253.638 92.4141 253.37 92.3053 253.127C92.004 252.494 91.5201 251.966 90.916 251.611L84.1994 247.11C83.8258 246.868 83.4226 246.675 82.9996 246.536C82.5675 246.389 82.1176 246.3 81.662 246.272C81.2211 246.242 80.7782 246.277 80.3473 246.375C79.9438 246.456 79.561 246.618 79.2222 246.852L71.2712 253.167L71.0646 253.385L70.944 253.54C70.7858 253.778 70.6893 254.052 70.6633 254.336C70.6372 254.621 70.6824 254.907 70.7947 255.17C71.0281 255.812 71.4684 256.357 72.0462 256.72L78.7629 261.215C79.1438 261.461 79.5628 261.641 80.0029 261.749C80.4708 261.868 80.9499 261.937 81.4323 261.956C81.8767 261.975 82.3217 261.942 82.7585 261.858C83.1017 261.809 83.4241 261.664 83.6884 261.439L91.6451 255.165ZM116.784 269.815L116.744 269.941L116.439 270.257C116.411 270.298 116.372 270.329 116.326 270.349C116.28 270.368 116.23 270.374 116.181 270.366H115.86L111.675 269.063C111.248 268.935 110.805 268.871 110.36 268.873C109.888 268.874 109.418 268.929 108.959 269.04C108.525 269.14 108.107 269.296 107.713 269.505C107.376 269.681 107.081 269.93 106.852 270.234L104.929 272.989L104.814 273.265C104.738 273.518 104.713 273.783 104.74 274.046C104.763 274.343 104.847 274.632 104.987 274.895C105.145 275.184 105.355 275.441 105.607 275.653C105.91 275.904 106.262 276.09 106.64 276.199L114.482 278.644C114.619 278.679 114.763 278.679 114.901 278.644C115.035 278.621 115.167 278.588 115.297 278.547L125.63 263.81C125.74 263.661 125.884 263.541 126.049 263.46C126.129 263.413 126.218 263.383 126.309 263.371C126.401 263.359 126.494 263.366 126.583 263.391L129.454 264.287C129.683 264.355 129.758 264.528 129.672 264.797C129.626 264.947 129.591 265.027 129.563 265.039L117.415 282.33C117.272 282.498 117.091 282.63 116.887 282.714C116.702 282.817 116.485 282.848 116.279 282.8L103.247 278.736C102.651 278.548 102.095 278.248 101.611 277.852C101.147 277.487 100.758 277.037 100.463 276.526C100.182 276.03 100.002 275.484 99.9347 274.918C99.8583 274.36 99.9073 273.791 100.078 273.254L100.233 272.852L103.184 268.667C103.616 268.058 104.172 267.548 104.814 267.168C105.535 266.731 106.306 266.382 107.111 266.129C107.938 265.866 108.79 265.689 109.654 265.601C110.418 265.514 111.19 265.529 111.95 265.647L111.525 259.55C111.531 259.512 111.531 259.474 111.525 259.436C111.52 259.399 111.52 259.363 111.525 259.327L111.623 259.114C111.667 259.047 111.724 258.99 111.791 258.947C111.859 258.903 111.934 258.874 112.013 258.862L115.636 260.01C115.951 260.107 116.101 260.279 116.095 260.532L116.784 269.815ZM151.119 274.666C151.202 274.667 151.283 274.649 151.359 274.616C151.434 274.582 151.501 274.533 151.555 274.471C151.677 274.354 151.781 274.221 151.865 274.075L153.094 270.722V270.555C153.102 270.457 153.078 270.358 153.025 270.274C152.973 270.194 152.859 270.154 152.686 270.148L141.05 269.637C140.881 269.632 140.715 269.593 140.562 269.522C140.413 269.447 140.338 269.356 140.344 269.247L141.274 266.669C141.367 266.526 141.504 266.417 141.664 266.359C141.858 266.278 142.068 266.243 142.278 266.256L157.939 266.944C158.013 266.947 158.085 266.968 158.149 267.005C158.213 267.042 158.267 267.094 158.307 267.157C158.399 267.294 158.445 267.457 158.439 267.622L151.119 287.479C151.023 287.677 150.881 287.851 150.706 287.984C150.55 288.132 150.346 288.218 150.132 288.225L134.408 287.542C133.972 287.542 133.759 287.382 133.771 287.117L134.701 284.574C134.738 284.497 134.793 284.428 134.86 284.375C134.928 284.321 135.007 284.283 135.091 284.264C135.273 284.19 135.468 284.153 135.665 284.155L147.302 284.66C147.446 284.665 147.588 284.632 147.715 284.563C147.837 284.508 147.954 284.443 148.065 284.368L150.149 278.696C150.168 278.623 150.193 278.552 150.224 278.483C150.243 278.438 150.257 278.389 150.264 278.34C150.264 278.162 150.143 278.07 149.879 278.059L138.111 277.548C137.945 277.543 137.784 277.497 137.64 277.416C137.502 277.329 137.439 277.238 137.445 277.123L138.375 274.58C138.48 274.427 138.626 274.306 138.797 274.232C138.967 274.158 139.155 274.133 139.339 274.161L151.119 274.666ZM174.231 283.352C174.188 283.429 174.16 283.515 174.151 283.604V283.702C174.151 283.782 174.231 283.817 174.335 283.794L186.034 281.296C186.189 281.259 186.35 281.259 186.505 281.296C186.672 281.342 186.763 281.417 186.786 281.52L186.534 284.218C186.519 284.301 186.486 284.379 186.437 284.448C186.389 284.516 186.326 284.573 186.253 284.614C186.083 284.742 185.887 284.83 185.678 284.873L168.824 288.518C168.393 288.61 168.152 288.518 168.1 288.271L168.341 285.51C168.396 285.447 168.431 285.369 168.439 285.286C168.466 285.166 168.516 285.053 168.588 284.953L182.418 267.467V267.237C182.418 267.111 182.274 267.036 182.085 267.077L170.764 269.522C170.609 269.557 170.448 269.557 170.293 269.522C170.133 269.493 170.035 269.419 170.012 269.315L170.259 266.583C170.311 266.421 170.417 266.282 170.557 266.187C170.726 266.058 170.923 265.969 171.131 265.928L187.986 262.289C188.411 262.197 188.652 262.277 188.71 262.53L188.537 264.545C188.506 264.773 188.415 264.989 188.273 265.171L174.231 283.352ZM230.979 246.731C231.352 246.427 231.622 246.381 231.782 246.588L232.73 249.148C232.753 249.233 232.756 249.323 232.739 249.409C232.722 249.496 232.686 249.578 232.632 249.648C232.534 249.826 232.406 249.985 232.253 250.118L229.107 252.633C228.706 252.951 228.368 253.34 228.108 253.781C227.86 254.19 227.657 254.625 227.505 255.078C227.371 255.479 227.29 255.896 227.264 256.318C227.236 256.65 227.273 256.983 227.373 257.3L228.585 260.435L228.7 260.658C228.7 260.71 228.728 260.722 228.7 260.704L228.883 260.94C229.053 261.151 229.269 261.319 229.515 261.431C229.762 261.542 230.031 261.594 230.301 261.583C230.997 261.553 231.66 261.284 232.178 260.819L238.597 255.693C238.706 255.6 238.791 255.482 238.843 255.348C238.898 255.223 238.944 255.095 238.981 254.964L232.575 238.137C232.51 237.965 232.49 237.78 232.517 237.598C232.531 237.41 232.617 237.235 232.758 237.11L235.112 235.233C235.301 235.083 235.479 235.118 235.657 235.342C235.753 235.457 235.799 235.531 235.795 235.566L243.321 255.314C243.374 255.529 243.374 255.753 243.321 255.968C243.307 256.187 243.211 256.392 243.051 256.542L232.391 265.056C231.897 265.463 231.327 265.767 230.715 265.951C230.158 266.126 229.573 266.19 228.992 266.141C228.426 266.095 227.874 265.939 227.368 265.682C226.861 265.43 226.416 265.069 226.065 264.625L225.823 264.275L224.009 259.487C223.714 258.742 223.596 257.938 223.665 257.139C223.72 256.23 223.888 255.332 224.164 254.464C224.433 253.583 224.805 252.737 225.272 251.944C225.651 251.253 226.153 250.639 226.753 250.13L230.979 246.731Z" fill="#E4D536" stroke="#E4D536" stroke-width="5" stroke-miterlimit="10"/>
<path fill-rule="evenodd" clip-rule="evenodd" d="M144.558 51.5684C145.956 50.9352 146.841 49.5265 146.841 47.8915C146.841 45.6635 145.089 43.6342 142.104 43.6342H128.016V56.0112H134.863V52.0168H137.102L139.164 56.0101H146.844L144.558 51.5684ZM138.769 49.0196H134.863V46.4001L138.769 46.4127C139.115 46.4127 139.447 46.55 139.691 46.7945C139.935 47.0389 140.073 47.3704 140.073 47.7161C140.073 48.0618 139.935 48.3933 139.691 48.6378C139.447 48.8822 139.115 49.0196 138.769 49.0196V49.0196ZM151.138 56.0106H166.236V53.2459H157.984V51.4244H166.236V48.4403H157.984V46.6188H166.236V43.6342H151.138V56.0106ZM177.75 43.6342H170.903V56.0106H184.684V53.2459H177.75L177.75 43.6342ZM193.885 43.6342H187.039V56.0106H200.819V53.2459H193.884L193.885 43.6342ZM207.464 32.3404H100.468V55.9549H112.318V41.1203L207.465 41.1226C208.047 41.1321 208.626 41.0255 209.167 40.8091C209.708 40.5927 210.201 40.2707 210.616 39.8621C211.031 39.4534 211.361 38.9662 211.586 38.4288C211.812 37.8914 211.928 37.3145 211.928 36.7318C211.928 36.1491 211.812 35.5722 211.587 35.0348C211.362 34.4973 211.032 34.01 210.616 33.6013C210.201 33.1926 209.709 32.8706 209.168 32.6542C208.627 32.4377 208.048 32.331 207.465 32.3404H207.464ZM194.32 38.1282H112.314V35.3273L194.32 35.3354C194.506 35.3316 194.691 35.3649 194.863 35.4334C195.036 35.5019 195.193 35.6042 195.326 35.7342C195.459 35.8642 195.564 36.0195 195.636 36.1908C195.708 36.3621 195.745 36.546 195.745 36.7318C195.745 36.9176 195.708 37.1015 195.636 37.2728C195.564 37.4441 195.459 37.5993 195.326 37.7294C195.193 37.8594 195.036 37.9617 194.863 38.0302C194.691 38.0987 194.506 38.132 194.32 38.1282V38.1282ZM116.252 56.0106H123.098V43.6342H116.252V56.0106ZM203.672 56.0106H210.519V43.6342H203.672V56.0106Z" fill="#E4D536"/>
</g>
<defs>
<clipPath id="clip0">
<rect width="310" height="310" fill="white"/>
</clipPath>
</defs>
</svg>
